<svg xmlns="http://www.w3.org/2000/svg" width="90" height="25" viewBox="0 0 90 25" fill="none"><path d="M89.7135 15.8418H84.3281V19.1722H89.7135V15.8418Z" fill="white"></path><path d="M60.0133 5.32031H56.3672V18.9995H60.0133V5.32031Z" fill="white"></path><path d="M78.5915 5.32031H74.9453V18.9995H78.5915V5.32031Z" fill="white"></path><path d="M84.4977 5.49609H80.8516V19.1753H84.4977V5.49609Z" fill="white"></path><path d="M44.0313 12.2408V5.65525C44.0313 5.42946 44.084 5.35742 44.3076 5.35742C46.2363 5.37624 48.165 5.34161 50.1092 5.3761C50.7793 5.36639 51.4439 5.49882 52.0602 5.76458C52.6764 6.03034 53.2307 6.42367 53.6871 6.91914C54.2761 7.57007 54.6467 8.39195 54.7461 9.26792C54.9259 10.2865 54.7801 11.3365 54.3299 12.2659C54.0322 12.8408 53.6163 13.3449 53.1102 13.7445C52.6041 14.1442 52.0193 14.4303 51.395 14.5835C50.6812 14.7387 49.9493 14.7915 49.221 14.7403C48.752 14.7403 48.2892 14.7591 47.8327 14.7403C47.6246 14.7403 47.5718 14.7747 47.5718 15.0037C47.5904 16.2832 47.5718 17.5469 47.5904 18.8264C47.5904 19.0365 47.5377 19.0898 47.3296 19.0898C46.3233 19.071 45.3325 19.071 44.3232 19.0898C44.1151 19.0898 44.0654 19.0365 44.0654 18.8264C44.0312 16.625 44.0313 14.4329 44.0313 12.2408ZM48.7551 11.6325H49.78C50.0265 11.6272 50.2669 11.5546 50.4757 11.4224C51.0658 11.0712 51.1683 10.5098 51.1341 9.85439C51.126 9.46923 50.9685 9.10267 50.6956 8.83351C50.4226 8.56434 50.0559 8.41411 49.6744 8.41502C49.016 8.38052 48.3544 8.415 47.696 8.39618C47.5563 8.39618 47.5035 8.43383 47.5035 8.57182V11.4129C47.5035 11.554 47.5407 11.6074 47.696 11.6074C48.0532 11.6324 48.4073 11.6325 48.7551 11.6325Z" fill="white"></path><path d="M68.601 5.15581C69.7739 5.10929 70.9394 5.36282 71.9893 5.8928C72.6467 6.25792 73.2388 6.73167 73.741 7.2945C73.3962 7.68023 73.0639 8.10361 72.7192 8.48934C72.3745 8.87506 72.039 9.26087 71.7098 9.66227C71.5887 9.80339 71.5204 9.96015 71.2937 9.69673C70.9751 9.29377 70.5698 8.96939 70.1085 8.74812C69.6473 8.52684 69.1422 8.41453 68.6316 8.41967C68.1209 8.4248 67.6182 8.54716 67.1614 8.77767C66.7046 9.00818 66.3058 9.34073 65.9952 9.75001C65.6079 10.3083 65.3636 10.9547 65.284 11.6316C65.1174 12.6986 65.3595 13.7897 65.9611 14.6829C66.4893 15.3946 67.2719 15.87 68.142 16.0076C69.0122 16.1453 69.9012 15.9344 70.6197 15.4199C70.8684 15.264 71.0855 15.0618 71.2595 14.8241C71.3651 14.6673 71.4707 14.5418 71.6601 14.8053C72.2813 15.5767 72.9273 16.3325 73.5702 17.0851C73.5927 17.1027 73.611 17.1253 73.6235 17.1511C73.6361 17.177 73.6426 17.2054 73.6426 17.2341C73.6426 17.2629 73.6361 17.2913 73.6235 17.3171C73.611 17.343 73.5927 17.3654 73.5702 17.383C73.1605 17.8197 72.6934 18.1975 72.1819 18.5057C71.2578 19.0151 70.2279 19.2976 69.1755 19.3304C67.7682 19.4369 66.3599 19.1391 65.1132 18.4712C64.002 17.8728 63.0894 16.9579 62.4889 15.8401C62.0496 15.043 61.767 14.1677 61.6565 13.2624C61.5732 12.5396 61.5847 11.8088 61.6907 11.0891C61.7969 10.3067 62.032 9.54767 62.3864 8.84367C62.8225 7.98122 63.4402 7.22554 64.1961 6.62964C64.952 6.03373 65.8279 5.61201 66.7624 5.39407C67.3579 5.21244 67.9793 5.13197 68.601 5.15581Z" fill="white"></path><path d="M42.833 19.1743H38.9881C38.8297 19.1743 38.7769 19.1211 38.7241 18.98C38.7055 18.9079 38.6713 18.8356 38.6527 18.7823C38.4943 18.3747 38.3421 17.9859 38.1961 17.597H33.8481C33.7839 17.5923 33.7202 17.6108 33.6684 17.6494C33.6166 17.6879 33.5801 17.7438 33.5654 17.8071C33.4257 18.1803 33.2859 18.5723 33.1462 18.9424C33.1256 19.0226 33.0767 19.0924 33.0086 19.1387C32.9404 19.1849 32.8579 19.2042 32.7766 19.1932C31.5343 19.1744 30.292 19.1932 29 19.1932C29.2112 18.7667 29.3882 18.3402 29.5963 17.9137C30.0901 16.9039 30.5995 15.9098 31.0902 14.8812C31.6523 13.6958 32.2673 12.5417 32.8108 11.3532C33.3543 10.1646 33.9537 9.08283 34.4786 7.93192C34.8823 7.02561 35.3575 6.15687 35.7798 5.26938C35.814 5.20039 35.814 5.09375 35.9382 5.09375C36.0625 5.09375 36.0594 5.20039 36.0966 5.26938C36.606 6.29799 37.1309 7.31093 37.6247 8.33953C38.1496 9.49044 38.7645 10.61 39.2925 11.761C39.8204 12.9119 40.4695 14.1035 41.013 15.2889C41.5224 16.4085 42.1032 17.4841 42.628 18.588C42.6746 18.773 42.7461 18.9611 42.833 19.1743ZM37.0936 14.7839C36.7116 13.7679 36.314 12.7833 35.9134 11.7139C35.5159 12.7676 35.1152 13.7679 34.7332 14.7839H37.0936Z" fill="white"></path><path d="M0.09375 0.236328V24.4336H24.0608V0.236328H0.09375ZM16.9424 17.2459H7.38918V7.424H16.9424V17.2459Z" fill="white"></path></svg>