<svg xmlns="http://www.w3.org/2000/svg" width="179" height="48" viewBox="0 0 179 48" fill="none"><path d="M178.302 30.9258H167.617V37.4644H178.302V30.9258Z" fill="#2A5067"></path><path d="M119.373 10.2695H112.139V37.1258H119.373V10.2695Z" fill="#2A5067"></path><path d="M156.242 10.2695H149.008V37.1258H156.242V10.2695Z" fill="#2A5067"></path><path d="M167.955 10.6143H160.721V37.4705H167.955V10.6143Z" fill="#2A5067"></path><path d="M87.668 23.8579V10.9285C87.668 10.4852 87.7727 10.3438 88.2163 10.3438C92.0431 10.3807 95.8699 10.3127 99.7275 10.3804C101.057 10.3614 102.376 10.6214 103.599 11.1431C104.821 11.6649 105.921 12.4371 106.826 13.4099C107.995 14.6878 108.731 16.3014 108.928 18.0212C109.285 20.021 108.995 22.0824 108.102 23.9072C107.511 25.0359 106.686 26.0254 105.682 26.8101C104.678 27.5947 103.517 28.1564 102.279 28.4572C100.862 28.7619 99.4103 28.8656 97.9651 28.765C97.0346 28.765 96.1165 28.802 95.2106 28.765C94.7977 28.765 94.6929 28.8327 94.6929 29.2821C94.7299 31.7941 94.693 34.2753 94.7299 36.7873C94.7299 37.1998 94.6252 37.3044 94.2123 37.3044C92.2157 37.2674 90.2499 37.2674 88.2472 37.3044C87.8343 37.3044 87.7357 37.1998 87.7357 36.7873C87.668 32.4652 87.668 28.1615 87.668 23.8579ZM97.0408 22.6635H99.0744C99.5633 22.6532 100.04 22.5107 100.455 22.251C101.626 21.5615 101.829 20.4594 101.761 19.1726C101.745 18.4164 101.433 17.6968 100.891 17.1683C100.349 16.6399 99.6218 16.3449 98.8648 16.3467C97.5584 16.279 96.2458 16.3467 94.9394 16.3097C94.6621 16.3097 94.5574 16.3836 94.5574 16.6545V22.2324C94.5574 22.5095 94.6313 22.6142 94.9394 22.6142C95.6481 22.6634 96.3506 22.6635 97.0408 22.6635V22.6635Z" fill="#2A5067"></path><path d="M136.405 9.94912C138.733 9.85778 141.045 10.3555 143.128 11.396C144.433 12.1129 145.608 13.043 146.604 14.148C145.92 14.9053 145.261 15.7365 144.577 16.4938C143.893 17.2511 143.227 18.0085 142.574 18.7966C142.334 19.0737 142.198 19.3814 141.748 18.8642C141.116 18.0731 140.312 17.4363 139.397 17.0019C138.482 16.5674 137.479 16.3469 136.466 16.357C135.453 16.3671 134.455 16.6073 133.549 17.0599C132.643 17.5124 131.852 18.1653 131.235 18.9689C130.467 20.0649 129.982 21.3341 129.824 22.663C129.494 24.7579 129.974 26.8999 131.168 28.6536C132.216 30.0508 133.768 30.9841 135.495 31.2543C137.221 31.5246 138.985 31.1106 140.411 30.1005C140.904 29.7945 141.335 29.3975 141.68 28.9308C141.89 28.6229 142.099 28.3766 142.475 28.8938C143.708 30.4084 144.989 31.8922 146.265 33.3699C146.31 33.4044 146.346 33.4487 146.371 33.4994C146.396 33.5501 146.409 33.6059 146.409 33.6624C146.409 33.7189 146.396 33.7746 146.371 33.8253C146.346 33.876 146.31 33.9201 146.265 33.9546C145.452 34.8119 144.525 35.5536 143.511 36.1588C141.677 37.159 139.633 37.7136 137.545 37.778C134.753 37.9871 131.959 37.4023 129.485 36.0911C127.28 34.9163 125.47 33.1199 124.278 30.9255C123.407 29.3604 122.846 27.6422 122.627 25.8647C122.461 24.4457 122.484 23.0109 122.694 21.5979C122.905 20.0617 123.372 18.5716 124.075 17.1894C124.94 15.4962 126.166 14.0126 127.666 12.8427C129.165 11.6727 130.903 10.8448 132.757 10.4169C133.939 10.0603 135.172 9.90232 136.405 9.94912V9.94912Z" fill="#2A5067"></path><path d="M85.2827 37.4704H77.6538C77.3395 37.4704 77.2347 37.366 77.13 37.0889C77.093 36.9473 77.0252 36.8055 76.9882 36.7008C76.674 35.9004 76.372 35.1371 76.0824 34.3737H67.4552C67.3279 34.3645 67.2015 34.4009 67.0987 34.4765C66.9959 34.5521 66.9235 34.6619 66.8944 34.7861C66.6171 35.5188 66.3399 36.2885 66.0626 37.015C66.0218 37.1725 65.9246 37.3096 65.7895 37.4004C65.6544 37.4912 65.4907 37.5292 65.3293 37.5074C62.8644 37.4705 60.3994 37.5074 57.8359 37.5074C58.255 36.6701 58.6062 35.8327 59.0191 34.9954C59.9989 33.0129 61.0095 31.0612 61.9831 29.0417C63.0985 26.7144 64.3187 24.4487 65.3971 22.1153C66.4755 19.7818 67.6648 17.6579 68.7062 15.3983C69.5073 13.619 70.4501 11.9134 71.2881 10.171C71.3559 10.0355 71.3559 9.82617 71.6024 9.82617C71.8489 9.82617 71.8428 10.0355 71.9167 10.171C72.9273 12.1904 73.9688 14.1791 74.9486 16.1986C75.99 18.4582 77.2101 20.6563 78.2577 22.9158C79.3053 25.1754 80.5932 27.515 81.6716 29.8423C82.6822 32.0403 83.8346 34.1521 84.876 36.3193C84.9684 36.6826 85.1102 37.0518 85.2827 37.4704ZM73.8948 28.8508C73.1368 26.856 72.3481 24.923 71.5532 22.8235C70.7644 24.8922 69.9694 26.856 69.2115 28.8508H73.8948Z" fill="#2A5067"></path><path d="M0.484375 0.289062V47.7952H48.0386V0.289062H0.484375ZM33.9146 33.6838H14.9596V14.4006H33.9146V33.6838Z" fill="#2A5067"></path></svg>