<svg xmlns="http://www.w3.org/2000/svg" width="106" height="15" viewBox="0 0 106 15" fill="none"><path d="M40.6894 7.0721V1.53922C44.1742 1.53922 45.4505 1.36261 46.0602 5.61733H46.4147V0.878906H36.928V1.53215H38.5694V13.7101H36.7578V14.3528H46.5353V9.37424H46.085C45.5958 13.1417 44.6422 13.7137 41.9514 13.7137H40.7071V7.79586H41.4161C42.6214 7.82411 43.3056 8.52328 43.5432 10.5888H43.9863V4.47341H43.5503C43.5503 4.47341 43.4617 7.10387 41.3559 7.06503L40.6894 7.0721Z" fill="white"></path><path d="M36.8144 7.31211H31.4648V7.91932H33.2976V12.2941C32.9892 13.4099 31.3407 13.8723 30.8515 13.8723C27.4305 13.8723 27.6609 8.89031 27.6609 7.55917C27.6609 6.34101 27.5404 1.24253 30.8515 1.24253C33.1736 1.24253 34.3966 3.54454 34.8858 5.61011H35.2404C35.2404 4.7627 35.2404 0.705838 35.2404 0.7129C35.2404 0.719962 33.6486 1.86042 33.6415 1.83923C33.6344 1.81805 32.9112 0.751691 30.8302 0.751691C26.7959 0.751691 25.314 4.7627 25.3282 7.55917C25.3282 10.1155 26.53 14.4797 30.8302 14.4797C31.3851 14.493 31.9343 14.3656 32.4261 14.1092C32.9179 13.8529 33.3362 13.4761 33.6415 13.0145C33.6415 13.0145 35.3467 14.3491 35.3538 14.3561V7.91932H36.7931L36.8144 7.31211Z" fill="white"></path><path d="M99.362 9.38135C98.8764 13.1453 97.9156 13.7067 95.2284 13.7067H95.0654V1.52512H96.7812V0.871876H91.1587V1.52512H92.8816V13.7067H91.5238L86.5004 0.511719H85.7914C85.7914 0.511719 81.6436 12.4814 81.633 12.5167C81.633 12.4779 81.321 13.5442 80.6332 13.6784C80.0022 13.7067 80.0483 13.3782 80.0483 13.2617V10.9561C80.0483 10.3488 80.0022 8.97169 79.3712 8.33967C78.6621 7.63349 77.4533 7.577 77.4781 7.55229C77.5029 7.52757 80.5517 6.92026 80.5517 4.0214C80.5517 1.98408 79.1336 0.970837 76.7513 0.882565H70.0156V1.53926H71.7456V13.7172H70.0156V14.3634H75.5105V13.7172H73.7841V7.86313H76.0884C80.0837 8.18798 75.4042 14.3669 80.6403 14.3634H83.9373V13.7138C83.7565 13.7138 82.544 13.7491 82.4696 12.9122C82.42 12.3049 83.2672 10.1229 83.2672 10.1229H87.7589C87.7589 10.1229 89.1557 13.7172 89.177 13.7172H87.6135V14.3634H99.8548V9.38842L99.362 9.38135ZM75.9962 7.17092H73.8018V1.5215H76.6095C78.258 1.7722 78.3253 3.6683 78.3253 4.27208C78.3253 5.73033 77.7121 7.16747 75.9962 7.16747V7.17092ZM83.5792 9.49427L85.529 3.66831L87.61 9.49427H83.5792Z" fill="white"></path><path d="M63.3251 1.52509C66.8099 1.52509 68.0968 1.35916 68.6995 5.61388H69.054V0.878906H55.2281V1.52509H55.5826C56.0718 1.52509 57.231 1.56393 57.2984 2.58435V10.3523L50.8286 0.885975H47.3047V1.53215H47.8896C48.5987 1.53215 49.5594 1.56393 49.602 2.59142V12.5484C49.602 13.5159 48.1413 13.8866 47.5316 13.8866V14.3704H52.2998V13.8866C51.69 13.8866 50.2188 13.5159 50.2188 12.5484V3.78482C52.7784 7.42869 57.6139 14.3775 57.6636 14.3775H57.9046V2.59849C57.972 1.58513 59.1312 1.53922 59.6169 1.53922H61.2051V13.7313H59.3936V14.3704H69.1745V9.39183H68.6818C68.1961 13.1558 67.2389 13.7313 64.5517 13.7313H63.3074V7.81362H64.0164C65.2217 7.84186 65.9095 8.54086 66.1434 10.6064H66.6469V4.48755H66.2144C66.2144 4.48755 66.1257 7.12145 64.0164 7.08261H63.3499L63.3251 1.52509Z" fill="white"></path><path d="M106.001 1.52431V0.871094H100.484V1.52431H102.218L102.225 13.6953H100.484V14.3555H106.001V13.6953H104.267V1.52431H106.001Z" fill="white"></path><path d="M19.4291 13.6814L19.9254 13.4941C20.6344 13.2011 20.7337 13.021 20.6982 12.5514V10.6624C21.2371 12.0217 21.744 12.9752 22.7863 12.9752C22.939 12.9738 23.0912 12.9559 23.2401 12.9221L23.6442 12.8304L23.3677 12.5231C23.2295 12.3633 23.1106 12.1879 23.0132 12.0006L22.8785 11.7711C22.7349 11.5749 22.5264 11.4353 22.2897 11.3772C22.0529 11.319 21.8032 11.3461 21.5845 11.4534C21.3718 11.0297 21.159 10.4824 20.9003 9.80446L20.8436 9.67723C20.801 9.57483 20.7549 9.47239 20.7089 9.37V9.35241C20.5535 8.9882 20.3747 8.63438 20.1735 8.29315C20.0042 8.0098 19.8122 7.74065 19.5992 7.48818C19.0561 6.85324 18.3005 6.43556 17.4722 6.31237C16.9512 6.23011 16.4254 6.1817 15.8981 6.16755L15.5436 6.14996C15.299 6.14996 14.792 6.09346 14.3028 6.05462L13.3669 5.98048C13.3855 5.90418 13.395 5.82591 13.3953 5.74739C13.3959 5.65017 13.3863 5.5532 13.3669 5.45792H16.8447C18.138 4.68435 19.4214 3.89455 20.6947 3.08871H20.8187C21.2374 3.11014 21.6523 3.00084 22.0057 2.77614C22.359 2.55143 22.6332 2.22244 22.7898 1.83514L22.9458 1.48205H11.1583C10.7771 1.48728 10.4077 1.61477 10.105 1.84566C9.80228 2.07655 9.58236 2.39849 9.47793 2.76372V2.78855C9.29397 2.24644 8.92688 1.78464 8.43923 1.48205C8.14769 1.29503 7.82174 1.16751 7.48034 1.1069C7.13894 1.04628 6.78886 1.05379 6.45039 1.12896C6.25649 1.18526 6.07154 1.26853 5.90093 1.37619C5.72574 1.48792 5.56905 1.62598 5.4365 1.78566C5.28171 1.98668 5.14639 2.20195 5.03235 2.42839C4.97385 2.47726 4.92149 2.53289 4.87638 2.59425L4.73457 2.85906C4.60084 3.15997 4.42149 3.43874 4.2028 3.68541C4.14344 3.74767 4.09941 3.82277 4.07419 3.90488C4.04897 3.98699 4.04322 4.0738 4.05744 4.15849C4.0798 4.27406 4.13522 4.38077 4.217 4.46572C4.1709 4.54645 4.14646 4.63766 4.14607 4.73054C4.14924 4.80584 4.16744 4.8797 4.19956 4.94794C4.23167 5.01618 4.27707 5.07733 4.33315 5.12793C4.38923 5.17853 4.45485 5.21765 4.5262 5.24276C4.59755 5.26786 4.67322 5.27859 4.74876 5.27431C4.9853 5.2599 5.2117 5.17357 5.3975 5.02708C5.51643 4.93896 5.64635 4.86661 5.78395 4.81174C5.8304 4.81349 5.87446 4.83262 5.90733 4.86536C5.9402 4.8981 5.95945 4.94202 5.96121 4.98828C5.96121 5.24251 5.63148 5.3801 5.3975 5.39775L4.91892 5.44723C4.56441 5.47901 4.40845 5.66273 4.40845 5.82515C4.40847 5.88335 4.42042 5.94085 4.44359 5.99428C4.46675 6.04771 4.50065 6.0959 4.54316 6.13582L4.57861 6.17117L4.69913 6.28047L4.19216 7.09268C3.88165 6.78118 3.47162 6.58749 3.03294 6.54529C2.92302 6.53761 2.81267 6.55225 2.70851 6.58805C2.60435 6.62384 2.50848 6.68017 2.4267 6.75373C2.38091 6.79706 2.34046 6.84554 2.30618 6.89838C2.12256 6.881 1.93793 6.91923 1.77636 7.00786C1.61479 7.09648 1.48379 7.2314 1.40039 7.39525C1.31698 7.55911 1.28505 7.74425 1.30877 7.92644C1.33249 8.10862 1.41072 8.27951 1.53333 8.41676L0.25 8.74864V14.8499H23.7541V13.6319L19.4291 13.6814ZM22.4601 12.0218L22.5842 12.2371C22.6338 12.3219 22.6799 12.4031 22.7331 12.4878C22.5433 12.4675 22.3613 12.4012 22.2031 12.2947C22.0449 12.1882 21.9153 12.0448 21.8256 11.877C21.9332 11.8317 22.0524 11.8213 22.1663 11.8473C22.2802 11.8733 22.383 11.9344 22.4601 12.0218ZM17.3729 6.79959C18.0899 6.90035 18.7453 7.25818 19.2163 7.80593C19.3156 7.92598 19.4113 8.04949 19.5071 8.18367C18.2344 8.01772 17.7877 7.83058 17.0751 6.77131C17.1708 6.77131 17.2701 6.79952 17.3729 6.81717V6.79959ZM16.8234 4.9988H14.4304C14.6456 4.80525 14.8204 4.57137 14.9445 4.31038H18.1953C18.05 4.53743 17.8458 4.72108 17.6044 4.84226C17.3629 4.96343 17.0931 5.01754 16.8234 4.9988ZM18.7271 3.82661H16.3342C16.5571 3.62989 16.737 3.38949 16.8624 3.12043H20.1168C19.9719 3.35325 19.7658 3.54213 19.5209 3.66662C19.2759 3.7911 19.0014 3.84643 18.7271 3.82661ZM18.8902 2.00117H22.1304C21.9807 2.21068 21.7796 2.37836 21.5462 2.48839C21.3129 2.59842 21.0551 2.64705 20.7975 2.62959H18.4045C18.6025 2.45035 18.7669 2.23763 18.8902 2.00117ZM5.79455 2.12478C5.89565 2.0063 6.01537 1.90491 6.14907 1.82462C6.32437 1.70975 6.52153 1.63185 6.72826 1.59601C6.935 1.56018 7.1469 1.56705 7.35086 1.61618L6.48943 2.14582C6.38307 2.14582 6.27672 2.12823 6.17745 2.12823C6.04208 2.12728 5.90686 2.13786 5.77331 2.15995L5.80165 2.12478H5.79455ZM4.79485 5.90635C4.79718 5.89066 4.80474 5.87621 4.81632 5.86532C4.82789 5.85443 4.84278 5.8476 4.85864 5.84618H5.27698C5.78748 5.82853 6.30859 5.62033 6.36886 5.09069C6.37779 4.91636 6.31854 4.74534 6.20351 4.61365C6.08847 4.48195 5.92661 4.39983 5.75202 4.38452C5.51128 4.4229 5.28503 4.52404 5.09618 4.67761C4.98705 4.77074 4.85692 4.836 4.71687 4.86812C4.65306 4.86812 4.59985 4.82222 4.59985 4.78691C4.6002 4.78103 4.6002 4.77521 4.59985 4.76933L4.86929 4.41624L4.63885 4.2609C4.58921 4.22912 4.51122 4.16905 4.50413 4.12315C4.49704 4.07725 4.52898 4.06676 4.53962 4.05263C4.65474 3.92276 4.76016 3.78454 4.85509 3.63938C4.92599 3.54404 4.96499 3.49111 5.07844 3.49111C5.13236 3.4911 5.18417 3.51225 5.22263 3.5499C5.26109 3.58754 5.28315 3.63878 5.28408 3.69248C5.28408 3.76663 5.36562 3.82299 5.46488 3.82299C5.56415 3.82299 5.61022 3.7525 5.67403 3.69248C5.67403 3.69248 5.91158 3.47351 5.78395 3.37111C5.65633 3.26872 5.0749 3.49473 5.2238 2.96509L5.26279 2.89096C5.38707 2.78397 5.53203 2.70343 5.6887 2.65424C5.84538 2.60506 6.01049 2.58826 6.17391 2.60494C6.28663 2.60476 6.39919 2.61296 6.51067 2.62959H6.59575L7.8082 1.88462C7.80947 1.89872 7.80947 1.91294 7.8082 1.92703C7.82551 2.12964 7.78387 2.33283 7.68832 2.51253C7.59277 2.69222 7.44733 2.84069 7.26933 2.94027L7.12042 3.02147L7.21615 3.56886C7.07123 3.60666 6.94208 3.68926 6.84718 3.80471C6.75229 3.92016 6.69652 4.06246 6.68793 4.21142C6.69493 4.33885 6.71394 4.46544 6.74466 4.58934C6.784 4.77452 6.81123 4.962 6.82619 5.15069C6.82619 5.71916 6.03919 6.09339 5.37626 6.07221C5.18676 6.0637 4.99992 6.02431 4.8232 5.95566C4.81211 5.94691 4.80341 5.93568 4.79784 5.92273C4.79227 5.90978 4.79002 5.89555 4.7913 5.88152L4.79485 5.90635ZM1.78861 7.64697C1.85447 7.5569 1.945 7.48775 2.04938 7.44766C2.15377 7.40758 2.26754 7.3984 2.37707 7.42111L2.58626 7.45628L2.65005 7.25853C2.66454 7.21199 2.69011 7.16974 2.72452 7.13509C2.7962 7.07707 2.88777 7.04912 2.97976 7.05734C3.35461 7.10986 3.69675 7.29848 3.94047 7.58697C4.04799 7.7082 4.14525 7.83815 4.23119 7.9754C4.23119 8.00365 4.26661 8.03181 4.28434 8.06005L4.33042 8.13781C4.38788 8.21776 4.43774 8.30294 4.47933 8.39211L4.78066 7.96833C4.78066 7.96833 4.78066 7.95064 4.78066 7.93299C4.74923 7.86956 4.71373 7.80822 4.67433 7.74938L4.64949 7.71403L4.61405 7.6611C4.58214 7.60814 4.5325 7.534 4.51123 7.49163L5.14582 6.48184C5.26258 6.5049 5.38129 6.51676 5.50033 6.51719C6.39369 6.51719 7.31897 6.00516 7.31897 5.14362V5.12242C7.30627 4.90836 7.27544 4.69582 7.22679 4.48693C7.20692 4.39252 7.19271 4.297 7.18425 4.2009C7.18425 4.10557 7.31543 3.99953 7.50687 3.99953H7.79755L7.66638 3.25456C7.86478 3.11118 8.02657 2.92344 8.13865 2.70631C8.25072 2.48919 8.30994 2.24875 8.31157 2.00462C8.54163 2.1936 8.73139 2.42657 8.86961 2.68976C9.00782 2.95295 9.09169 3.24114 9.11632 3.53714C9.12216 3.77495 9.09594 4.01246 9.03834 4.24332L9.00644 4.35624C8.91079 4.72449 8.79239 5.08645 8.65193 5.44016L8.57746 5.63446L8.76181 5.74032C9.08796 5.92393 9.28648 6.05805 9.28648 6.48529C9.26882 6.71761 9.17324 6.93724 9.01506 7.10889C8.85687 7.28053 8.64529 7.39426 8.4144 7.43163L7.82944 7.54111L8.32577 7.87299C8.40197 7.92341 8.46471 7.99146 8.50856 8.07143C8.55241 8.1514 8.57605 8.24083 8.57746 8.33194C8.57607 8.40706 8.55987 8.48116 8.52972 8.55003C8.49958 8.6189 8.45608 8.68134 8.40176 8.73347C8.34744 8.78561 8.28334 8.82653 8.21312 8.85399C8.1429 8.88144 8.06797 8.89487 7.99255 8.89347H7.80465L7.75146 9.06294C7.57066 9.6526 7.37214 9.94211 6.73402 10.0057C6.76909 9.80872 6.78571 9.60897 6.78365 9.40896C6.78365 9.34894 6.78365 9.19004 6.78365 9.13708L6.75531 8.58624L6.36886 8.98174C6.19214 9.13444 5.97598 9.23468 5.74492 9.27121V8.79106L2.96557 8.08488L1.97296 8.34263C1.88646 8.25657 1.82223 8.15078 1.7858 8.03454C1.74936 7.91829 1.74178 7.79503 1.76377 7.67524L1.78861 7.64697ZM0.966119 13.6777L2.96557 13.1623L4.96146 13.6777H0.966119ZM5.25924 13.254L2.96557 12.6609L0.67189 13.254V9.19001L2.96557 8.59675L5.25924 9.19001V13.254ZM6.32277 12.4595C6.21638 12.6428 6.15398 12.8482 6.14045 13.0595C6.12692 13.2708 6.16264 13.4825 6.24479 13.6777H5.74137V9.7655C5.93363 9.73764 6.12102 9.68297 6.29798 9.60309C6.28551 9.76673 6.26299 9.92941 6.2306 10.0903C6.2306 10.1327 6.23062 10.1751 6.2058 10.221L6.15971 10.5036H6.44689C6.7905 10.5185 7.13284 10.4532 7.44659 10.3129V11.944C7.44706 11.9538 7.44561 11.9636 7.4423 11.9728C7.439 11.982 7.43392 11.9904 7.42733 11.9976C7.42074 12.0049 7.41278 12.0107 7.40392 12.0149C7.39506 12.019 7.38548 12.0213 7.3757 12.0218H7.30123C7.11468 12.01 6.92807 12.0436 6.75756 12.1199C6.58705 12.1962 6.43778 12.3128 6.32277 12.4595ZM11.605 12.5656C11.48 12.7191 11.3936 12.9 11.3529 13.0935C11.3122 13.2869 11.3184 13.4872 11.371 13.6777H8.3896C8.65149 13.6772 8.90395 13.5803 9.09862 13.4059C9.17684 13.3131 9.23539 13.2056 9.27073 13.0897C9.30606 12.9738 9.31745 12.8518 9.30422 12.7314C9.30422 12.7138 9.34323 12.6467 9.49212 12.5831L9.74736 12.4666L9.59494 12.2301C9.3397 11.8381 9.44959 10.9872 9.54886 10.5246H9.5701C10.3736 10.5185 11.17 10.374 11.9241 10.0974C12.1049 10.0374 12.2786 9.97733 12.4842 9.92084C12.4842 9.92084 12.6898 9.85388 12.9628 9.79033L13.9342 11.3863C14.0299 11.524 14.0405 11.6122 13.8668 11.817L13.3775 12.3395L12.5799 12.1913C12.3986 12.1654 12.2138 12.184 12.0414 12.2456C11.869 12.3071 11.7143 12.4097 11.5908 12.5443L11.605 12.5656ZM11.8532 13.6565C11.8043 13.5256 11.7885 13.3847 11.807 13.2462C11.8255 13.1077 11.8779 12.9758 11.9595 12.8621C12.0276 12.7883 12.1122 12.7317 12.2065 12.6968C12.3007 12.6618 12.402 12.6495 12.5019 12.6609L13.4272 12.8338H13.5796L14.2319 12.1276C14.3715 11.9988 14.4591 11.8237 14.478 11.6351C14.4969 11.4465 14.446 11.2575 14.3348 11.1037L13.4626 9.67016C13.6034 9.64832 13.7456 9.63648 13.8881 9.63481C14.2081 9.6485 14.5199 9.74077 14.7956 9.90325C14.8594 10.0374 14.948 10.2176 15.0473 10.4153C15.2316 10.786 15.4585 11.245 15.5224 11.4322C15.5507 11.5137 15.553 11.6019 15.5289 11.6847C15.5048 11.7676 15.4554 11.841 15.3876 11.8947L13.7108 13.6602L11.8532 13.6565ZM17.5608 13.6565H14.395L15.7528 12.2442C15.8817 12.1258 15.9733 11.9729 16.0167 11.8037C16.0601 11.6345 16.0534 11.4564 15.9974 11.291C15.9336 11.0968 15.7528 10.7295 15.5684 10.3517C16.1073 10.6024 16.9227 10.8247 18.5818 10.9589C18.7839 10.9766 18.8335 11.0436 18.876 11.2237L18.9469 11.9299L18.0784 12.1242C17.9376 12.1505 17.806 12.2123 17.6962 12.3038C17.5863 12.3953 17.5018 12.5134 17.4509 12.6468C17.3946 12.8136 17.3753 12.9904 17.3943 13.1654C17.4133 13.3403 17.4701 13.5092 17.5608 13.6602V13.6565ZM17.9153 12.8233C17.9362 12.766 17.9717 12.715 18.0183 12.6754C18.0649 12.6358 18.121 12.6089 18.1812 12.5973L19.4822 12.3113L19.3652 11.1566V11.132C19.3432 10.9521 19.257 10.7861 19.1222 10.6643C18.9875 10.5424 18.8133 10.4728 18.6314 10.4682C16.3094 10.2811 15.7705 9.9385 15.2068 9.57482L15.1714 9.55361C14.7946 9.31057 14.3581 9.17507 13.9093 9.16173C13.3805 9.18862 12.8574 9.28367 12.353 9.44431C12.1509 9.5008 11.963 9.56436 11.7822 9.62085C11.0127 9.91014 10.1938 10.0468 9.3716 10.0232H9.1766L9.12697 10.2069C9.09151 10.3516 8.79372 11.5133 9.08088 12.2583C9.00576 12.311 8.94371 12.38 8.89947 12.4602C8.85523 12.5404 8.82999 12.6295 8.82564 12.7209C8.82564 12.9786 8.77598 13.0422 8.75471 13.074C8.63418 13.2011 8.23006 13.2188 7.88973 13.2188H7.75856L7.68767 13.3176C7.57022 13.4475 7.41903 13.5427 7.25077 13.5926C7.0825 13.6424 6.90368 13.6451 6.73402 13.6002C6.67117 13.4652 6.63864 13.3181 6.63864 13.1693C6.63864 13.0205 6.67117 12.8735 6.73402 12.7385C6.80686 12.6585 6.89716 12.5962 6.99795 12.5564C7.09874 12.5166 7.20734 12.5004 7.31542 12.509H7.38985C7.46341 12.5085 7.53616 12.4937 7.60394 12.4652C7.67172 12.4367 7.73323 12.3953 7.78491 12.3432C7.8366 12.291 7.87746 12.2293 7.90518 12.1614C7.93289 12.0936 7.94693 12.0209 7.94646 11.9476V9.86791C8.04519 9.71193 8.1249 9.54475 8.18395 9.37C8.4321 9.33168 8.65863 9.20716 8.82343 9.01846C8.98824 8.82976 9.0807 8.58908 9.08443 8.33901C9.08316 8.14217 9.02535 7.94987 8.91782 7.78472C9.17093 7.6734 9.38719 7.49294 9.54154 7.26422C9.69589 7.0355 9.78199 6.76783 9.7899 6.49236C9.80034 6.27835 9.75042 6.0658 9.64579 5.87859C9.54116 5.69139 9.38598 5.537 9.19785 5.43309C9.32004 5.08589 9.42304 4.73227 9.50632 4.37383L9.91397 2.91923C9.98629 2.65281 10.1437 2.41698 10.3625 2.24754C10.5812 2.0781 10.8493 1.9842 11.1264 1.97996H18.3088C18.1596 2.18997 17.9585 2.35813 17.725 2.46822C17.4915 2.57831 17.2335 2.62653 16.9758 2.60838H12.6295L12.4026 3.09216H16.3023C16.1571 3.3247 15.951 3.51338 15.7061 3.63782C15.4612 3.76227 15.1868 3.81776 14.9126 3.79833H12.0765L11.8496 4.28211H14.3702C14.2243 4.50944 14.0194 4.69333 13.7774 4.8145C13.5353 4.93567 13.2649 4.98953 12.9947 4.97053H11.4561L11.2292 5.4543H12.8422C12.8895 5.54311 12.9092 5.64397 12.899 5.74394C12.8962 5.89597 12.8331 6.04066 12.7235 6.14651C12.6139 6.25236 12.4667 6.31064 12.314 6.30875C12.1911 6.3004 12.0709 6.26934 11.9595 6.21703L11.7433 6.12513L11.3887 6.46064L11.5979 6.54891C11.8301 6.67291 12.0865 6.74523 12.3495 6.7608C12.4904 6.76141 12.6299 6.73352 12.7597 6.6789C12.8895 6.62428 13.0068 6.5441 13.1046 6.44305C13.3811 6.46071 13.8136 6.49955 14.2567 6.53132C14.7743 6.57369 15.26 6.61599 15.5153 6.63011L15.8698 6.6477C16.0825 6.6477 16.2774 6.66547 16.4724 6.67959C17.4544 8.26496 17.9578 8.47328 19.8545 8.70278C19.9927 8.94642 20.1168 9.20414 20.2338 9.46189V12.569C20.2338 12.7102 20.2338 12.7598 20.2338 12.7845C20.0935 12.8904 19.9382 12.9749 19.7729 13.0352L18.1705 13.6353C18.0738 13.5283 18.0047 13.3994 17.9695 13.2597C17.9343 13.12 17.934 12.9737 17.9685 12.8338" fill="white"></path></svg>