<svg xmlns="http://www.w3.org/2000/svg" width="184" height="26" viewBox="0 0 184 26" fill="none"><path d="M70.4785 11.7533V2.10551C76.5361 2.10551 78.7545 1.79754 79.8144 9.21657H80.4306V0.954102H63.9404V2.09318H66.7935V23.3281H63.6445V24.4488H80.6401V15.7676H79.8575C79.0071 22.3369 77.3494 23.3344 72.6723 23.3344H70.5093V13.0153H71.7418C73.8369 13.0646 75.0263 14.2837 75.4391 17.8855H76.2094V7.2219H75.4515C75.4515 7.2219 75.2975 11.8087 71.6371 11.7409L70.4785 11.7533Z" fill="#2A5067"></path><path d="M63.7374 12.1712H54.4386V13.23H57.6245V20.8585C57.0883 22.804 54.2229 23.6104 53.3725 23.6104C47.4259 23.6104 47.8265 14.9232 47.8265 12.602C47.8265 10.4779 47.617 1.58761 53.3725 1.58761C57.4088 1.58761 59.5347 5.60166 60.3851 9.20342H61.0014C61.0014 7.72577 61.0014 0.651765 61.0014 0.664079C61.0014 0.676392 58.2345 2.66502 58.2222 2.62808C58.2099 2.59114 56.9527 0.73172 53.3355 0.73172C46.3228 0.73172 43.747 7.72579 43.7717 12.602C43.7717 17.0596 45.8607 24.6695 53.3355 24.6695C54.3001 24.6927 55.2547 24.4705 56.1096 24.0235C56.9644 23.5765 57.6914 22.9195 58.2222 22.1145C58.2222 22.1145 61.1862 24.4417 61.1985 24.454V13.23H63.7004L63.7374 12.1712Z" fill="#2A5067"></path><path d="M172.464 15.7796C171.62 22.3428 169.95 23.3218 165.279 23.3218H164.996V2.08057H167.978V0.941489H158.205V2.08057H161.2V23.3218H158.84L150.108 0.313477H148.875C148.875 0.313477 141.665 21.1853 141.647 21.2468C141.647 21.1791 141.105 23.0385 139.909 23.2725C138.812 23.3217 138.892 22.749 138.892 22.5458V18.5255C138.892 17.4666 138.812 15.0653 137.715 13.9632C136.483 12.7318 134.382 12.6333 134.425 12.5902C134.468 12.5471 139.767 11.4882 139.767 6.43336C139.767 2.88085 137.302 1.11405 133.161 0.960128H121.453V2.10522H124.46V23.3401H121.453V24.4668H131.005V23.3401H128.004V13.1323H132.009C138.954 13.6987 130.82 24.473 139.921 24.4668H145.652V23.3341C145.338 23.3341 143.231 23.3956 143.101 21.9365C143.015 20.8775 144.488 17.0726 144.488 17.0726H152.295C152.295 17.0726 154.723 23.3401 154.76 23.3401H152.043V24.4668H173.321V15.7919L172.464 15.7796ZM131.849 11.9252H128.034V2.07426H132.915C135.78 2.51139 135.897 5.81765 135.897 6.87048C135.897 9.41326 134.831 11.9192 131.849 11.9192V11.9252ZM145.03 15.9765L148.419 5.81768L152.036 15.9765H145.03Z" fill="#2A5067"></path><path d="M109.824 2.08086C115.881 2.08086 118.118 1.79153 119.166 9.21056H119.782V0.954102H95.7493V2.08086H96.3655C97.2159 2.08086 99.231 2.14858 99.3481 3.92792V17.473L88.1019 0.966427H81.9766V2.09318H82.9934C84.2258 2.09318 85.8958 2.14859 85.9698 3.94024V21.3024C85.9698 22.9894 83.4309 23.6359 82.371 23.6359V24.4795H90.6593V23.6359C89.5994 23.6359 87.042 22.9894 87.042 21.3024V6.02119C91.4912 12.3751 99.8965 24.4918 99.9828 24.4918H100.402V3.95257C100.519 2.18555 102.534 2.10551 103.378 2.10551H106.139V23.365H102.99V24.4795H119.992V15.7982H119.135C118.291 22.3614 116.627 23.365 111.956 23.365H109.793V13.0463H111.026C113.121 13.0955 114.316 14.3144 114.723 17.9161H115.598V7.24655H114.846C114.846 7.24655 114.692 11.8393 111.026 11.7716H109.867L109.824 2.08086Z" fill="#2A5067"></path><path d="M184 2.08043V0.941406H174.412V2.08043H177.425L177.438 23.3031H174.412V24.4545H184V23.3031H180.987V2.08043H184Z" fill="#2A5067"></path><path d="M33.5176 23.2791L34.3802 22.9527C35.6127 22.4416 35.7853 22.1277 35.7237 21.3088V18.0148C36.6603 20.3852 37.5415 22.0478 39.3532 22.0478C39.6187 22.0454 39.8832 22.0142 40.142 21.9552L40.8445 21.7952L40.3639 21.2595C40.1237 20.9807 39.9169 20.6749 39.7476 20.3483L39.5135 19.9482C39.2639 19.606 38.9014 19.3626 38.49 19.2613C38.0785 19.1599 37.6444 19.2071 37.2642 19.3941C36.8945 18.6553 36.5247 17.701 36.0749 16.5189L35.9763 16.2971C35.9024 16.1185 35.8223 15.9399 35.7422 15.7613V15.7307C35.4722 15.0956 35.1613 14.4786 34.8117 13.8836C34.5174 13.3895 34.1835 12.9202 33.8134 12.48C32.8692 11.3728 31.5559 10.6445 30.116 10.4297C29.2105 10.2863 28.2965 10.2018 27.3799 10.1772L26.7637 10.1465C26.3385 10.1465 25.4573 10.048 24.6069 9.98026L22.9801 9.85099C23.0124 9.71793 23.029 9.58145 23.0294 9.44454C23.0304 9.275 23.0138 9.10593 22.9801 8.93978H29.0253C31.2733 7.59089 33.5042 6.21372 35.7175 4.80855H35.9332C36.6609 4.84591 37.3822 4.65532 37.9964 4.26351C38.6106 3.8717 39.0871 3.29801 39.3594 2.62268L39.6305 2.00699H19.141C18.4783 2.0161 17.8362 2.23841 17.3101 2.64102C16.7839 3.04363 16.4016 3.60501 16.2201 4.24186V4.28516C15.9003 3.33988 15.2622 2.53462 14.4146 2.00699C13.9078 1.68088 13.3412 1.45852 12.7478 1.35283C12.1544 1.24714 11.5458 1.26023 10.9575 1.39131C10.6204 1.48947 10.2989 1.63468 10.0024 1.82241C9.69786 2.01723 9.42549 2.25797 9.19508 2.5364C8.92602 2.88692 8.6908 3.2623 8.49257 3.65714C8.39088 3.74236 8.29988 3.83935 8.22147 3.94635L7.97497 4.40811C7.74251 4.93281 7.43076 5.41891 7.05063 5.84902C6.94744 5.9576 6.87091 6.08855 6.82706 6.23172C6.78322 6.3749 6.77324 6.52627 6.79795 6.67395C6.83681 6.87546 6.93315 7.06154 7.0753 7.20967V7.20967C6.99517 7.35044 6.95268 7.50948 6.95201 7.67143C6.95752 7.80274 6.98916 7.93153 7.04498 8.05052C7.10081 8.16952 7.17971 8.27615 7.2772 8.36438C7.37468 8.45261 7.48875 8.52082 7.61277 8.5646C7.73679 8.60838 7.86832 8.62707 7.99964 8.61961C8.41079 8.59449 8.80433 8.44396 9.12731 8.18851C9.33403 8.03486 9.55985 7.90871 9.79905 7.81303C9.87979 7.81608 9.95637 7.84944 10.0135 7.90652C10.0706 7.96361 10.1041 8.0402 10.1072 8.12087C10.1072 8.56417 9.53402 8.80408 9.12731 8.83486L8.29542 8.92114C7.67919 8.97656 7.40809 9.2969 7.40809 9.58012C7.40812 9.6816 7.4289 9.78187 7.46917 9.87504C7.50943 9.9682 7.56835 10.0522 7.64225 10.1219L7.70386 10.1835L7.91336 10.3741L7.03212 11.7903C6.49238 11.2472 5.77965 10.9094 5.01712 10.8358C4.82606 10.8224 4.63424 10.848 4.45318 10.9104C4.27211 10.9728 4.10547 11.071 3.96333 11.1993C3.88373 11.2749 3.81342 11.3594 3.75383 11.4515C3.43465 11.4212 3.11372 11.4879 2.83288 11.6424C2.55203 11.797 2.32432 12.0322 2.17934 12.3179C2.03436 12.6037 1.97886 12.9265 2.02009 13.2442C2.06132 13.5619 2.1973 13.8598 2.41042 14.0992L0.179688 14.6779V25.3168H41.0355V23.1929L33.5176 23.2791ZM38.7863 20.3853L39.0019 20.7608C39.0882 20.9085 39.1684 21.0501 39.2608 21.1979C38.9308 21.1625 38.6145 21.0469 38.3395 20.8612C38.0646 20.6755 37.8393 20.4255 37.6833 20.1328C37.8704 20.0538 38.0776 20.0358 38.2756 20.0811C38.4736 20.1264 38.6522 20.2329 38.7863 20.3853V20.3853ZM29.9434 11.2793C31.1897 11.455 32.3291 12.0789 33.1478 13.034C33.3203 13.2434 33.4868 13.4588 33.6531 13.6927C31.4409 13.4033 30.6645 13.077 29.4258 11.23C29.5922 11.23 29.7647 11.2792 29.9434 11.3099V11.2793ZM28.9883 8.13921H24.8287C25.2028 7.80171 25.5065 7.39388 25.7223 6.9388H31.3731C31.1204 7.33471 30.7655 7.65495 30.3458 7.86624C29.9261 8.07753 29.4571 8.17188 28.9883 8.13921V8.13921ZM32.2974 6.09524H28.1379C28.5254 5.75222 28.8381 5.33303 29.0561 4.86386H34.713C34.4612 5.26983 34.103 5.59919 33.6771 5.81625C33.2513 6.03332 32.7742 6.1298 32.2974 6.09524V6.09524ZM32.5809 2.91219H38.2132C37.953 3.27751 37.6034 3.5699 37.1977 3.76176C36.7921 3.95362 36.344 4.03843 35.8962 4.00798H31.7367C32.0808 3.69543 32.3666 3.3245 32.5809 2.91219ZM9.81748 3.12774C9.9932 2.92113 10.2013 2.74433 10.4337 2.60434C10.7384 2.40403 11.0811 2.2682 11.4405 2.20571C11.7998 2.14322 12.1682 2.15521 12.5227 2.24088L11.0253 3.16441C10.8405 3.16441 10.6556 3.13375 10.483 3.13375C10.2477 3.13209 10.0127 3.15054 9.78054 3.18906L9.82981 3.12774H9.81748ZM8.07975 9.72172C8.08379 9.69436 8.09694 9.66915 8.11706 9.65017C8.13718 9.63118 8.16306 9.61927 8.19063 9.6168H8.91781C9.80518 9.58601 10.711 9.22297 10.8158 8.29944C10.8313 7.99545 10.7283 7.69725 10.5283 7.46761C10.3284 7.23796 10.047 7.09477 9.74353 7.06807C9.32508 7.13501 8.93179 7.31135 8.60353 7.57914C8.41384 7.74153 8.18763 7.85533 7.9442 7.91133C7.83328 7.91133 7.7408 7.83131 7.7408 7.76974C7.74139 7.75948 7.74139 7.74933 7.7408 7.73907L8.20913 7.12339L7.80857 6.85252C7.7223 6.79711 7.58673 6.69236 7.5744 6.61232C7.56208 6.53228 7.6176 6.51399 7.63609 6.48936C7.8362 6.2629 8.01944 6.02189 8.18446 5.76876C8.30771 5.60252 8.37549 5.51022 8.57269 5.51022C8.66642 5.5102 8.75648 5.54709 8.82333 5.61273C8.89018 5.67837 8.92853 5.76771 8.93015 5.86135C8.93015 5.99064 9.07188 6.08892 9.24443 6.08892C9.41697 6.08892 9.49706 5.96602 9.60798 5.86135C9.60798 5.86135 10.0209 5.47953 9.79905 5.30098C9.5772 5.12243 8.56655 5.51653 8.82536 4.593L8.89314 4.46373C9.10917 4.27716 9.36114 4.13673 9.63348 4.05097C9.90582 3.96521 10.1928 3.9359 10.4769 3.96499C10.6728 3.96469 10.8685 3.97899 11.0623 4.00798H11.2102L13.3177 2.70896C13.3199 2.73354 13.3199 2.75834 13.3177 2.78292V2.78292C13.3478 3.1362 13.2754 3.49052 13.1093 3.80385C12.9432 4.11718 12.6904 4.37607 12.381 4.54971L12.1222 4.6913L12.2885 5.6458C12.0366 5.71171 11.8122 5.85575 11.6472 6.05706C11.4822 6.25837 11.3853 6.5065 11.3704 6.76624C11.3826 6.98843 11.4156 7.20919 11.469 7.42522C11.5374 7.74813 11.5847 8.07503 11.6107 8.40406C11.6107 9.39532 10.2427 10.0479 9.09037 10.0109C8.76098 9.99609 8.43621 9.92741 8.12902 9.8077C8.10975 9.79245 8.09462 9.77285 8.08494 9.75028C8.07526 9.7277 8.07134 9.70288 8.07358 9.67843L8.07975 9.72172ZM2.85416 12.7569C2.96865 12.5998 3.12601 12.4792 3.30746 12.4093C3.4889 12.3394 3.68667 12.3234 3.87705 12.363L4.24067 12.4244L4.35155 12.0795C4.37675 11.9984 4.42119 11.9247 4.48101 11.8643C4.6056 11.7631 4.76477 11.7144 4.92468 11.7287C5.57626 11.8203 6.17098 12.1492 6.59462 12.6522C6.78152 12.8636 6.95058 13.0902 7.09997 13.3296C7.09997 13.3788 7.16153 13.4279 7.19235 13.4772L7.27246 13.6127C7.37233 13.7522 7.459 13.9007 7.5313 14.0562L8.05508 13.3172C8.05508 13.3172 8.05508 13.2864 8.05508 13.2556C8.00045 13.145 7.93874 13.038 7.87026 12.9354L7.82708 12.8738L7.76547 12.7815C7.71001 12.6892 7.62371 12.5599 7.58674 12.486L8.68981 10.7252C8.89277 10.7654 9.09913 10.7861 9.30604 10.7868V10.7868C10.8589 10.7868 12.4673 9.89401 12.4673 8.39174V8.35476C12.4452 7.9815 12.3916 7.61089 12.3071 7.24664C12.2725 7.08203 12.2478 6.91546 12.2331 6.7479C12.2331 6.58167 12.4611 6.39677 12.7939 6.39677H13.2992L13.0712 5.09775C13.416 4.84774 13.6973 4.52036 13.8921 4.14176C14.0869 3.76315 14.1898 3.3439 14.1927 2.9182C14.5926 3.24773 14.9224 3.65397 15.1627 4.1129C15.4029 4.57182 15.5487 5.07434 15.5915 5.59048C15.6017 6.00515 15.5561 6.41931 15.456 6.82186L15.4005 7.01877C15.2342 7.66089 15.0284 8.29204 14.7843 8.90882L14.6548 9.24763L14.9753 9.43221C15.5422 9.75237 15.8873 9.98624 15.8873 10.7312C15.8566 11.1363 15.6905 11.5193 15.4155 11.8186C15.1405 12.1179 14.7728 12.3162 14.3714 12.3814L13.3546 12.5723L14.2173 13.151C14.3498 13.2389 14.4589 13.3576 14.5351 13.497C14.6113 13.6365 14.6524 13.7924 14.6548 13.9513C14.6524 14.0822 14.6243 14.2115 14.5719 14.3315C14.5195 14.4516 14.4439 14.5605 14.3494 14.6514C14.255 14.7423 14.1436 14.8137 14.0215 14.8616C13.8995 14.9094 13.7692 14.9328 13.6381 14.9304H13.3115L13.2191 15.2259C12.9048 16.2541 12.5597 16.7589 11.4505 16.8698C11.5115 16.5263 11.5403 16.178 11.5368 15.8293C11.5368 15.7246 11.5368 15.4475 11.5368 15.3552L11.4875 14.3947L10.8158 15.0843C10.5086 15.3506 10.1328 15.5254 9.7312 15.5891V14.7518L4.9 13.5205L3.17461 13.9699C3.02425 13.8198 2.9126 13.6354 2.84927 13.4327C2.78594 13.23 2.77277 13.015 2.81099 12.8062L2.85416 12.7569ZM1.42448 23.2728L4.9 22.374L8.36936 23.2728H1.42448ZM8.88697 22.5339L4.9 21.4997L0.913036 22.5339V15.4475L4.9 14.413L8.88697 15.4475V22.5339ZM10.7356 21.1486C10.5507 21.4683 10.4423 21.8263 10.4187 22.1948C10.3952 22.5633 10.4573 22.9323 10.6001 23.2728H9.72503V16.451C10.0592 16.4024 10.385 16.3071 10.6925 16.1678C10.6709 16.4531 10.6317 16.7368 10.5754 17.0174C10.5754 17.0912 10.5755 17.1652 10.5323 17.2452L10.4522 17.738H10.9514C11.5487 17.7641 12.1437 17.6502 12.6891 17.4055V20.2497C12.6899 20.2667 12.6874 20.2839 12.6817 20.2999C12.6759 20.3159 12.6671 20.3306 12.6556 20.3432C12.6442 20.3558 12.6303 20.366 12.6149 20.3733C12.5995 20.3805 12.5829 20.3845 12.5659 20.3853H12.4364C12.1122 20.3647 11.7878 20.4233 11.4914 20.5564C11.195 20.6894 10.9356 20.8927 10.7356 21.1486V21.1486ZM19.9174 21.3335C19.7002 21.6012 19.55 21.9167 19.4793 22.254C19.4085 22.5913 19.4193 22.9405 19.5107 23.2728H14.3283C14.7835 23.2718 15.2224 23.103 15.5607 22.7987C15.6967 22.637 15.7985 22.4495 15.8599 22.2474C15.9213 22.0453 15.9411 21.8327 15.9181 21.6227C15.9181 21.5919 15.9859 21.475 16.2447 21.3641L16.6884 21.1609L16.4235 20.7485C15.9798 20.065 16.1708 18.5812 16.3434 17.7746H16.3803C17.777 17.7641 19.1614 17.5121 20.4721 17.0297C20.7863 16.925 21.0883 16.8204 21.4457 16.7218C21.4457 16.7218 21.8031 16.6051 22.2776 16.4943L23.9661 19.2772C24.1325 19.5173 24.1509 19.6711 23.849 20.0282L22.9986 20.9394L21.6121 20.6808C21.297 20.6357 20.9756 20.6682 20.676 20.7755C20.3763 20.8828 20.1074 21.0617 19.8928 21.2965L19.9174 21.3335ZM20.3488 23.2359C20.2639 23.0074 20.2363 22.7619 20.2686 22.5204C20.3008 22.2788 20.3918 22.0488 20.5337 21.8506C20.652 21.722 20.7991 21.6232 20.963 21.5623C21.1268 21.5013 21.3028 21.4798 21.4765 21.4997L23.0848 21.8013H23.3499L24.4837 20.5699C24.7264 20.3453 24.8785 20.0399 24.9114 19.711C24.9443 19.3821 24.8558 19.0526 24.6624 18.7845L23.1465 16.2847C23.3912 16.2466 23.6383 16.226 23.886 16.2231C24.4423 16.247 24.9842 16.4079 25.4635 16.6912C25.5744 16.9251 25.7284 17.2393 25.901 17.584C26.2214 18.2305 26.6158 19.0308 26.7268 19.3572C26.7761 19.4993 26.7801 19.6531 26.7381 19.7976C26.6962 19.942 26.6104 20.0701 26.4926 20.1637L23.5779 23.2422L20.3488 23.2359ZM30.2701 23.2359H24.7671L27.1273 20.7731C27.3513 20.5667 27.5107 20.3 27.5861 20.005C27.6616 19.71 27.6499 19.3995 27.5525 19.1109C27.4416 18.7723 27.1273 18.1319 26.8069 17.4731C27.7435 17.9103 29.1609 18.298 32.0448 18.5319C32.3961 18.5627 32.4823 18.6797 32.5562 18.9937L32.6795 20.2251L31.1697 20.5639C30.9251 20.6098 30.6963 20.7176 30.5054 20.8771C30.3144 21.0367 30.1675 21.2426 30.079 21.4751C29.9812 21.7659 29.9477 22.0743 29.9807 22.3794C30.0137 22.6844 30.1124 22.9789 30.2701 23.2422V23.2359ZM30.8863 21.7829C30.9227 21.6829 30.9844 21.594 31.0654 21.525C31.1464 21.4559 31.2439 21.409 31.3485 21.3888L33.61 20.8901L33.4066 18.8767V18.8338C33.3683 18.52 33.2184 18.2306 32.9843 18.0182C32.7501 17.8057 32.4473 17.6843 32.1311 17.6763C28.0948 17.35 27.1581 16.7526 26.1783 16.1185L26.1167 16.0815C25.4617 15.6577 24.7029 15.4214 23.9229 15.3982C23.0037 15.4451 22.0944 15.6108 21.2177 15.8909C20.8664 15.9894 20.5398 16.1002 20.2255 16.1988C18.8879 16.7032 17.4645 16.9414 16.0353 16.9004H15.6963L15.61 17.2206C15.5484 17.473 15.0308 19.4987 15.5299 20.7978C15.3993 20.8895 15.2915 21.01 15.2146 21.1498C15.1377 21.2896 15.0938 21.445 15.0862 21.6043C15.0862 22.0538 14.9999 22.1646 14.963 22.22C14.7534 22.4417 14.051 22.4726 13.4594 22.4726H13.2314L13.1082 22.6448C12.904 22.8714 12.6412 23.0374 12.3487 23.1243C12.0562 23.2112 11.7454 23.2158 11.4505 23.1376C11.3413 22.9022 11.2847 22.6457 11.2847 22.3863C11.2847 22.1268 11.3413 21.8704 11.4505 21.635C11.5771 21.4955 11.7341 21.3869 11.9093 21.3175C12.0845 21.2482 12.2732 21.2199 12.4611 21.2349H12.5905C12.7184 21.2341 12.8448 21.2081 12.9626 21.1585C13.0804 21.1089 13.1874 21.0366 13.2772 20.9457C13.367 20.8548 13.4381 20.7471 13.4862 20.6288C13.5344 20.5105 13.5588 20.3838 13.558 20.256V16.6296C13.7296 16.3576 13.8682 16.0661 13.9708 15.7613C14.4022 15.6945 14.7959 15.4774 15.0824 15.1484C15.3689 14.8193 15.5296 14.3996 15.5361 13.9636C15.5339 13.6204 15.4334 13.285 15.2465 12.9971C15.6864 12.8029 16.0624 12.4883 16.3307 12.0895C16.5989 11.6906 16.7486 11.2239 16.7624 10.7436C16.7805 10.3704 16.6937 9.99975 16.5119 9.67332C16.33 9.34688 16.0602 9.07768 15.7332 8.89649C15.9456 8.29107 16.1247 7.67445 16.2694 7.04943L16.978 4.51303C17.1037 4.04846 17.3774 3.63724 17.7576 3.34178C18.1378 3.04633 18.6039 2.88259 19.0855 2.87521H31.5703C31.3109 3.24141 30.9614 3.53463 30.5555 3.72659C30.1497 3.91855 29.7012 4.00265 29.2533 3.971H21.6983L21.3039 4.81456H28.0824C27.8301 5.22005 27.4718 5.54905 27.0461 5.76605C26.6204 5.98305 26.1436 6.07981 25.6669 6.04593H20.7371L20.3427 6.8895H24.724C24.4703 7.2859 24.1143 7.60655 23.6936 7.81784C23.2728 8.02912 22.8028 8.12305 22.3331 8.08991H19.6587L19.2643 8.93347H22.0681C22.1501 9.08832 22.1845 9.2642 22.1667 9.43852C22.1618 9.70362 22.0522 9.95592 21.8616 10.1405C21.6711 10.3251 21.4152 10.4267 21.1499 10.4234C20.9363 10.4088 20.7273 10.3547 20.5337 10.2634L20.1578 10.1032L19.5415 10.6882L19.9051 10.8422C20.3086 11.0584 20.7544 11.1845 21.2115 11.2116C21.4564 11.2127 21.699 11.1641 21.9246 11.0688C22.1502 10.9736 22.3541 10.8338 22.5241 10.6576C23.0047 10.6884 23.7565 10.7561 24.5268 10.8115C25.4265 10.8854 26.2707 10.9591 26.7144 10.9838L27.3307 11.0144C27.7004 11.0144 28.0393 11.0454 28.3782 11.07C30.0852 13.8345 30.9602 14.1977 34.257 14.5979C34.4974 15.0227 34.713 15.4721 34.9164 15.9216V21.3395C34.9164 21.5858 34.9164 21.6722 34.9164 21.7153C34.6725 21.8999 34.4026 22.0472 34.1153 22.1524L31.33 23.1989C31.1617 23.0122 31.0418 22.7874 30.9805 22.5438C30.9193 22.3002 30.9187 22.0452 30.9787 21.8013" fill="#2A5067"></path></svg>