<?xml version="1.0" encoding="UTF-8"?> <svg xmlns="http://www.w3.org/2000/svg" width="60px" height="60px" viewBox="0 0 568 187" fill="none"><g clip-path="url(#clip0_73_996)"><path d="M139 66.2297C128.36 66.2797 117.71 66.2597 107.07 66.2597C96.43 66.2597 85.88 66.2797 75.28 66.2297C74.03 66.2297 73.57 66.4597 73.59 67.8397C73.68 73.3697 73.67 78.8997 73.59 84.4297C73.57 85.7797 73.98 86.0697 75.27 86.0597C89.4 86.0097 103.53 86.0197 117.65 86.0297C118.74 86.0297 120.26 85.5397 120.78 86.2597C121.24 86.8997 120.65 88.3297 120.47 89.3997C118.27 102.67 111.06 112.38 99.37 118.84C89.37 124.37 78.59 125.82 67.39 124.58C55.97 123.32 45.96 118.71 37.82 110.65C23.92 96.8797 19.06 80.1097 22.89 61.0497C27.44 38.4497 46.21 21.8897 69.11 19.9897C84.05 18.7497 97.29 23.0197 108.5 33.0997C109.26 33.7797 109.6 33.7297 110.28 33.0497C114.3 28.9697 118.34 24.9197 122.44 20.9297C123.32 20.0797 123.1 19.6897 122.34 18.9797C105.43 3.36968 85.37 -2.38032 62.81 0.879681C43.8 3.61968 28.13 12.7797 16.09 27.7297C2.70003 44.3797 -2.68997 63.5097 1.27003 84.4997C6.50003 112.19 23.24 130.71 49.46 140.61C62.78 145.64 76.6 145.95 90.46 143.16C107.16 139.8 120.4 130.93 130.29 117.16C136.1 109.07 139.08 99.7997 140.54 90.0297C141.65 82.5897 141.75 75.1397 140.68 67.6697C140.52 66.5497 140.15 66.2297 139 66.2297V66.2297Z" fill="#2A5067"></path><path d="M471.7 5.29993C466.07 5.33993 460.44 5.35993 454.81 5.28993C453.52 5.26993 453.16 5.58993 453.16 6.90993C453.2 29.1699 453.19 51.4299 453.19 73.6899C453.19 95.9499 453.19 118.21 453.17 140.47C453.17 141.6 453.39 142.03 454.64 142.02C460.37 141.95 466.09 141.96 471.82 142.02C472.91 142.03 473.17 141.71 473.17 140.65C473.14 95.9899 473.14 51.3299 473.17 6.65993C473.17 5.43993 472.73 5.28993 471.7 5.29993V5.29993Z" fill="#2A5067"></path><path d="M441.02 99.4902C441.02 84.9502 441.02 70.4103 441.02 55.8803C441.02 55.1003 441.16 54.4102 439.92 54.4202C434.15 54.4802 428.37 54.4603 422.6 54.4303C421.8 54.4303 421.51 54.6803 421.53 55.4903C421.58 57.2503 421.56 59.0203 421.53 60.7803C421.53 61.1603 421.79 61.7103 421.24 61.9103C420.74 62.0903 420.5 61.5903 420.22 61.2903C417.51 58.3203 414.24 56.1103 410.56 54.5503C400.58 50.3003 390.56 50.7203 380.65 54.6903C357.38 64.0203 345.37 90.9803 354.53 114.57C361.59 132.75 375.04 143.35 394.89 144.65C404.71 145.29 413.39 142.15 420.29 134.84C420.55 134.57 420.79 134.17 421.22 134.32C421.71 134.48 421.53 134.96 421.53 135.31C421.47 139.07 421.73 142.84 421.21 146.59C420.48 151.82 418.94 156.75 415.3 160.73C408.73 167.89 400.32 169.35 391.31 167.58C382.9 165.93 377.36 160.34 373.66 152.83C373.24 151.98 372.92 151.73 371.97 152.14C366.81 154.35 361.62 156.51 356.41 158.62C355.49 158.99 355.3 159.32 355.73 160.25C360.66 170.64 368.21 178.4 378.82 183.01C388.25 187.11 398.05 187.49 407.98 185.43C418.28 183.3 426.77 178.21 432.76 169.39C438.49 160.95 440.75 151.41 440.91 141.4C441.13 127.44 440.97 113.47 440.97 99.5003H441.02V99.4902ZM418.65 114.51C409.65 129.73 388.59 130.51 377.92 116.28C374.05 111.12 372.05 104.95 372.08 98.2603C372.26 89.1203 375.31 81.2303 382.59 75.4303C394.89 65.6303 412.04 69.1403 419.28 83.1003C424.7 93.5503 424.67 104.32 418.66 114.51H418.65Z" fill="#2A5067"></path><path d="M196.24 51.6201C169.66 51.6201 149.39 71.8101 149.41 98.2501C149.43 124.48 169.9 144.84 196.25 144.83C222.6 144.83 243.06 124.46 243.08 98.2401C243.1 71.8101 222.81 51.6201 196.24 51.6201V51.6201ZM209.3 122.79C198.76 129.2 185.73 127.12 177.25 117.97C166.78 106.68 167.6 86.8901 178.96 76.6101C192.69 64.1901 214.15 69.7301 220.73 87.4001C221.33 89.0101 221.77 90.6701 222.08 92.3501C222.44 94.2701 222.58 96.2201 222.58 98.2001C222.33 108.64 218.44 117.23 209.3 122.79V122.79Z" fill="#2A5067"></path><path d="M297.52 51.6204C270.93 51.5304 250.59 71.6404 250.51 98.0704C250.43 124.36 270.88 144.8 297.3 144.84C323.48 144.88 344.11 124.52 344.18 98.5704C344.25 71.9504 324.14 51.7104 297.52 51.6204V51.6204ZM316.47 117.73C303.75 132.08 281.06 128.12 273.45 110.41C271.83 106.64 270.94 102.26 270.98 97.8404C271.17 88.4804 274.53 80.2404 282.68 74.5704C297.02 64.5804 316.65 71.3104 322.02 88.1304C325.44 98.8604 324.11 109.09 316.47 117.72V117.73Z" fill="#2A5067"></path><path d="M567.51 85.3704C566.71 83.5404 566.03 81.6604 565.25 79.8204C562.09 72.3304 557.55 65.8304 551.3 60.5604C536.53 48.1304 514.36 49.1004 499.92 60.0104C488.37 68.7304 482.81 80.6504 481.92 94.8804C481.19 106.5 483.95 117.23 491.03 126.58C500.3 138.82 512.91 144.49 527.86 144.82C544.15 144.59 556.82 137.87 566.38 125.1C567.03 124.23 566.77 123.92 566 123.42C561.5 120.47 557 117.51 552.56 114.46C551.46 113.7 550.96 113.69 550.14 114.83C545.67 120.98 539.87 125.13 532.17 126.13C521.12 127.56 511.88 123.78 506.16 113.6C505.54 112.49 505.79 112.14 506.87 111.71C512.47 109.45 518.05 107.12 523.64 104.81C538.02 98.8604 552.4 92.9004 566.79 87.0004C567.73 86.6104 567.9 86.2704 567.51 85.3704V85.3704ZM541.06 80.6104C528.84 85.6704 516.62 90.7504 504.39 95.8104C502.06 96.7704 502.05 96.7504 502.18 94.2604C502.85 81.7004 511.22 71.8704 523.53 69.9004C530.74 68.7504 537.31 70.5904 542.16 76.5104C544.37 79.2104 544.26 79.2804 541.06 80.6104Z" fill="#2A5067"></path></g><defs><clipPath id="clip0_73_996"><rect width="567.71" height="186.64" fill="white"></rect></clipPath></defs></svg> 