<svg xmlns="http://www.w3.org/2000/svg" id="Calque_1" data-name="Calque 1" viewBox="0 0 111.63 93.79"><defs><style> .cls-1 { fill: #ff8c12; } </style></defs><path class="cls-1" d="m108.28,74.89h-9.05V21.78c4.21-1.45,6.94-5.26,6.97-9.72,0-5.69-4.63-10.32-10.32-10.32-.03,0-.06,0-.08,0-2.95,0-5.76,1.31-7.73,3.59-1.82,2.11-2.7,4.8-2.49,7.49l-6.44,2.76c-1.96-2.17-4.7-3.4-7.63-3.4-3.7-.04-7.06,1.92-8.95,5.22-1.75,3.06-1.86,6.61-.34,9.63l-10.57,10.57c-3.43-1.71-7.95-1.22-10.94,1.18l-7.95-5.11c.73-2.87.12-6-1.71-8.51-1.98-2.73-5.11-4.31-8.32-4.27-5.69,0-10.32,4.63-10.32,10.32-.01,4.14,2.37,7.75,6.21,9.43.25.11.5.18.75.27v33.97H6.71V3.36c0-1.85-1.51-3.36-3.36-3.36S0,1.51,0,3.36v74.89c0,1.85,1.51,3.36,3.36,3.36h104.97c2.17-.09,3.3-1.76,3.3-3.36,0-1.6-1.14-3.27-3.34-3.35ZM26.34,31.22c0,1.99-1.62,3.61-3.61,3.61s-3.61-1.62-3.61-3.57c.1-2.51,1.89-3.63,3.61-3.63s3.51,1.12,3.61,3.59Zm69.53-15.55c-1.99,0-3.61-1.62-3.61-3.57.1-2.51,1.89-3.63,3.61-3.63s3.51,1.12,3.61,3.59c0,1.99-1.62,3.61-3.61,3.61Zm-48.76,34.83c-1.99,0-3.61-1.62-3.61-3.57.1-2.51,1.89-3.63,3.61-3.63,1.72,0,3.51,1.12,3.61,3.59,0,1.99-1.62,3.61-3.61,3.61Zm3.36,6.17c2.31-.79,4.29-2.42,5.58-4.68,1.75-3.06,1.86-6.61.34-9.63l10.57-10.57c.38.19.78.35,1.18.49v42.61h-17.67v-18.21Zm21.03-30.55c-1.99,0-3.61-1.62-3.61-3.57.1-2.51,1.89-3.63,3.61-3.63s3.51,1.12,3.61,3.59c0,1.99-1.62,3.61-3.61,3.61Zm3.36,6.13c.83-.29,1.64-.7,2.4-1.21,3.14-2.12,4.83-5.62,4.54-9.29l6.44-2.76c1.2,1.33,2.68,2.29,4.29,2.84v53.06h-17.67v-42.64Zm-48.76,8.73c1.08-.37,2.11-.91,3.04-1.66l7.95,5.11c-.73,2.87-.12,6,1.71,8.51,1.28,1.76,3.03,3.03,4.97,3.71v18.23h-17.67v-33.91Z"></path><path class="cls-1" d="m24.47,87.08h-3.48c-1.85,0-3.36,1.51-3.36,3.36s1.51,3.36,3.36,3.36h3.52c2.17-.09,3.3-1.75,3.3-3.36s-1.13-3.27-3.34-3.36Z"></path><path class="cls-1" d="m48.85,87.08h-3.48c-1.85,0-3.36,1.51-3.36,3.36s1.51,3.36,3.36,3.36h3.52c2.17-.09,3.3-1.75,3.3-3.36s-1.13-3.27-3.34-3.36Z"></path><path class="cls-1" d="m73.24,87.08h-3.48c-1.85,0-3.36,1.51-3.36,3.36s1.51,3.36,3.36,3.36h3.52c2.17-.09,3.3-1.75,3.3-3.35s-1.13-3.27-3.34-3.36Z"></path><path class="cls-1" d="m97.62,87.08h-3.48c-1.85,0-3.36,1.51-3.36,3.36s1.5,3.36,3.36,3.36h3.52c2.17-.09,3.3-1.75,3.3-3.35s-1.13-3.27-3.34-3.36Z"></path></svg>