<svg xmlns="http://www.w3.org/2000/svg" id="Calque_1" data-name="Calque 1" viewBox="0 0 111.63 105.26"><defs><style> .cls-1 { fill: #ff8c12; } </style></defs><path class="cls-1" d="m54.58,68.34h2.77c1.61,9.47,9.88,16.51,19.58,16.51,1.85,0,3.35-1.5,3.35-3.35s-1.5-3.35-3.35-3.35c-6.05,0-11.22-4.06-12.72-9.8h12.72c1.85,0,3.35-1.5,3.35-3.35s-1.5-3.35-3.35-3.35h-12.72c1.5-5.75,6.68-9.81,12.72-9.81,1.85,0,3.35-1.5,3.35-3.35s-1.5-3.35-3.35-3.35c-9.7,0-17.97,7.04-19.58,16.51h-2.77c-1.85,0-3.35,1.5-3.35,3.35s1.5,3.35,3.35,3.35Z"></path><path class="cls-1" d="m105.18,43.04c3.32-2.37,4.61-7.2,4.65-10.12,0-7.28-5.93-13.21-13.21-13.21h-7.49c1.07-2.07,1.59-4.59,1.44-7.15,0-6.93-5.64-12.56-12.56-12.56H12.6c-3.53,0-6.79,1.43-9.18,4.01C.98,6.67-.25,10.28.04,13.85c0,3.35,1.31,6.5,3.68,8.88,2.38,2.38,5.53,3.68,8.88,3.68h8.4c-1.13,1.97-1.71,4.19-1.71,6.5s.59,4.53,1.71,6.5h-4.09c-7.28,0-13.21,5.93-13.21,13.21,0,3.76,1.63,7.36,4.43,9.85-2.79,2.5-4.43,6.09-4.43,9.86s1.63,7.36,4.43,9.85c-2.79,2.5-4.43,6.09-4.43,9.86,0,7.28,5.93,13.21,13.21,13.21h55.13c.11,0,.22,0,.26-.01,21.68-.55,39.32-18.65,39.32-40.35,0-7.8-2.22-15.33-6.44-21.85Zm-27.17-23.33H12.61c-3.23,0-5.86-2.63-5.86-5.86v-.12c-.23-1.89.35-3.76,1.57-5.14,1.09-1.22,2.59-1.89,4.23-1.89h65.44c1.74.02,3.24.68,4.32,1.9,1.18,1.32,1.74,3.19,1.55,5.25,0,3.23-2.63,5.86-5.86,5.86Zm-6.75,11.53c18.56,0,33.65,15.1,33.65,33.65s-15.1,33.65-33.65,33.65-33.65-15.1-33.65-33.65,15.1-33.65,33.65-33.65Zm-38.76-4.83h26.54c-7.39,2.34-14.01,6.81-19.06,13h-7.48c-3.58,0-6.5-2.92-6.5-6.5s2.92-6.5,6.5-6.5Zm68.57,11.29c-4.84-5.3-10.95-9.17-17.65-11.29h13.2c3.56,0,6.48,2.9,6.5,6.42-.05,1.43-.7,4.09-2.05,4.88ZM31.32,59.13h-14.4c-3.58,0-6.5-2.92-6.5-6.5s2.92-6.5,6.5-6.5h18.62c-2.15,4.07-3.57,8.44-4.22,13Zm-14.4,6.71h14c.1,4.47.93,8.83,2.47,13h-16.47c-3.58,0-6.5-2.92-6.5-6.5s2.92-6.5,6.5-6.5Zm0,19.71h19.68c3.12,5.22,7.36,9.66,12.4,13H16.92c-3.58,0-6.5-2.92-6.5-6.5s2.92-6.5,6.5-6.5Z"></path></svg>