<svg xmlns="http://www.w3.org/2000/svg" id="Calque_1" data-name="Calque 1" viewBox="0 0 111.63 111.19"><defs><style> .cls-1 { fill: #ff8c12; } </style></defs><path class="cls-1" d="m42.71,32.83h.04s26.16,0,26.16,0c2.17-.08,3.3-1.75,3.3-3.35,0-1.6-1.13-3.27-3.34-3.36h-26.16c-2.17.08-3.3,1.75-3.3,3.35,0,1.6,1.13,3.27,3.3,3.36Z"></path><path class="cls-1" d="m68.87,39.18h-26.12c-1.85,0-3.35,1.5-3.35,3.35s1.5,3.36,3.35,3.36h26.12c1.85,0,3.35-1.51,3.35-3.36s-1.5-3.35-3.35-3.35Z"></path><path class="cls-1" d="m108.27,0H3.36C1.5,0,0,1.5,0,3.35v74.01c0,1.85,1.5,3.36,3.36,3.36h32.17l-10.92,18.91c-.62,1.07-.6,2.4.06,3.45.66,1.05,1.84,1.66,3.07,1.58l5.6-.36,2.49,5.03c.56,1.14,1.74,1.87,3,1.87h0c1.2,0,2.31-.64,2.91-1.68l11.69-20.25c1.57.2,3.22.2,4.78,0l11.69,20.24c.6,1.04,1.71,1.68,2.9,1.68h0c1.27,0,2.45-.73,3-1.87l2.49-5.03,5.59.36c1.24.11,2.41-.51,3.07-1.58.66-1.07.69-2.39.06-3.45l-10.91-18.91h32.17c1.85,0,3.36-1.5,3.36-3.36V3.35c0-1.85-1.5-3.35-3.36-3.35Zm-61.37,87.14l-7.84,13.59-.7-1.42c-.57-1.15-1.73-1.87-3-1.87-.07,0-.15,0-.22,0l-1.58.1,8.33-14.42c1.43,1.61,3.13,2.98,5.02,4.01Zm-40.19-13.13V6.71h98.21v67.3h-30.77c.37-2.1.36-4.25-.02-6.35h12.16c1.85,0,3.36-1.5,3.36-3.35,0-2.95,2.4-5.35,5.35-5.35,1.85,0,3.36-1.51,3.36-3.36v-30.47c0-1.85-1.5-3.36-3.36-3.36-2.95,0-5.35-2.4-5.35-5.35,0-1.85-1.5-3.35-3.36-3.35H25.34c-1.85,0-3.35,1.5-3.35,3.35,0,2.95-2.4,5.35-5.35,5.35-1.85,0-3.36,1.51-3.36,3.36v30.47c0,1.85,1.5,3.36,3.36,3.36,2.95,0,5.35,2.4,5.35,5.35,0,1.85,1.5,3.35,3.35,3.35h12.16c-.38,2.1-.4,4.25-.02,6.35H6.71Zm64.17-13.98c-3.56-4.96-9.21-7.85-15.05-7.79-5.87-.06-11.52,2.83-15.08,7.79-.22.3-.42.61-.62.92h-11.91c-1.15-3.96-4.27-7.08-8.23-8.23v-24.71c3.96-1.15,7.08-4.27,8.23-8.23h55.19c1.15,3.96,4.27,7.08,8.23,8.23v24.71c-3.96,1.15-7.08,4.27-8.23,8.23h-11.91c-.2-.31-.4-.62-.62-.92Zm-15.07-1.01c5.49,0,11.55,3.71,11.88,11.81,0,5.23-3.51,9.92-8.44,11.37-.18.04-.35.08-.43.12-1.9.51-4.07.52-5.98.01-.15-.06-.3-.1-.38-.11-5.02-1.48-8.53-6.17-8.53-11.36.34-8.15,6.4-11.86,11.88-11.86Zm13.93,24.11l8.33,14.42-1.57-.1c-1.36-.09-2.62.64-3.22,1.86l-.7,1.42-7.84-13.59c1.89-1.04,3.59-2.4,5.02-4.01Z"></path></svg>