<svg xmlns="http://www.w3.org/2000/svg" id="Calque_1" data-name="Calque 1" viewBox="0 0 111.63 111.63"><defs><style> .cls-1 { fill: #ff8c12; } </style></defs><path class="cls-1" d="m33.85,58.19c.63.63,1.48.98,2.37.98s1.74-.35,2.37-.98l13.06-13.06c1.31-1.31,1.31-3.44,0-4.75s-3.44-1.31-4.75,0l-10.69,10.69-4.16-4.16c-1.31-1.31-3.44-1.31-4.75,0-1.31,1.31-1.31,3.44,0,4.75l6.53,6.53Z"></path><path class="cls-1" d="m97.58,59.97c-1.31-1.31-3.44-1.31-4.75,0l-10.69,10.69-4.16-4.16c-1.31-1.31-3.44-1.31-4.75,0-1.31,1.31-1.31,3.44,0,4.75l6.53,6.53c.63.63,1.48.98,2.37.98s1.74-.35,2.37-.98l13.06-13.06c1.31-1.31,1.31-3.44,0-4.75Z"></path><path class="cls-1" d="m101.74,26.34h-22.76V9.88c0-5.45-4.43-9.88-9.89-9.88H9.89C4.43,0,0,4.43,0,9.88v78.8c0,5.45,4.43,9.89,9.89,9.89h49.32v3.17c0,5.45,4.43,9.88,9.89,9.88h32.65c5.45,0,9.88-4.43,9.88-9.88V36.22c0-5.45-4.43-9.88-9.89-9.88Zm-35.83,72.23h39v3.17c0,1.75-1.42,3.17-3.17,3.17h-32.65c-1.75,0-3.17-1.42-3.17-3.17v-3.17Zm-59.21-13.28h52.5v6.57H9.89c-1.75,0-3.17-1.42-3.17-3.17v-3.39ZM9.89,6.71h59.21c1.75,0,3.17,1.42,3.17,3.17v16.45h-3.17c-5.45,0-9.88,4.43-9.88,9.88v42.36H6.71V9.88c0-1.75,1.42-3.17,3.17-3.17Zm95.03,32.69h-39v-3.17c0-1.75,1.42-3.17,3.17-3.17h32.65c1.75,0,3.17,1.42,3.17,3.17v3.17Zm-39,52.46v-9.91s0,0,0,0,0,0,0,0v-35.82h39v45.75h-39Z"></path></svg>