<svg xmlns="http://www.w3.org/2000/svg" width="150" height="39" viewBox="0 0 150 39" fill="none"><path d="M18.25 28.1049C19.3471 26.8904 20.9374 26.125 22.7074 26.125C23.1684 26.125 23.6155 26.1754 24.0442 26.2717C23.952 26.8675 23.952 26.8675 23.763 27.367C23.2329 28.7328 20.9927 28.907 18.25 28.1049Z" fill="#FF8C12"></path><path d="M25.5647 20.7757C25.5739 20.7757 25.5831 20.7757 25.5923 20.7757H27.4039C27.3855 20.6198 27.344 20.4777 27.261 20.3494C27.2564 20.3402 27.2518 20.3265 27.2472 20.3173C25.5831 17.7003 24.2002 14.8862 23.1493 11.9163C21.1533 10.2068 18.7241 8.97849 16.0505 8.41934V8.41476C16.1888 7.33771 16.258 6.23774 16.258 5.12402C16.258 3.36865 16.0828 1.65912 15.7463 0C12.7962 3.72614 9.45423 7.13146 5.78962 10.1655L5.79884 10.1701C2.25408 13.0759 0 17.4757 0 22.4027C0 24.2497 0.318061 26.028 0.903476 27.678C2.61363 20.8581 8.7674 15.7845 16.1289 15.6746C17.2075 15.6746 18.217 15.3904 19.0928 14.8954H19.0974C19.3878 14.735 19.7197 14.6433 20.0747 14.6433C21.0196 14.6433 21.8125 15.2987 22.0153 16.1741L22.0245 16.2199C22.149 16.7699 22.3518 17.2878 22.6192 17.7691C22.6929 17.8974 22.8128 18.0578 22.9003 18.1586L22.8957 18.1541C22.9557 18.2091 22.9879 18.287 22.9879 18.3741C22.9879 18.5482 22.845 18.6857 22.6745 18.6857C22.5961 18.6857 22.5224 18.6582 22.467 18.6078C22.4071 18.5665 22.3334 18.4566 22.3334 18.4566C21.2363 17.2283 19.6368 16.4491 17.8529 16.4491C17.8529 16.4491 17.1522 16.4354 16.5345 16.4354C14.9627 16.4354 13.4784 16.7974 12.1554 17.4391C7.04803 20.0836 3.55398 25.3955 3.55398 31.5187C3.55398 31.8166 3.5632 32.1145 3.57703 32.4078C6.5041 35.9735 10.9569 38.2514 15.9445 38.2514C16.8987 38.2514 17.8344 38.1689 18.7425 38.0085L18.7379 38.0039C16.742 36.1935 15.4928 33.5857 15.4928 30.6845C15.4928 29.0346 15.8984 27.4763 16.6175 26.1059H16.6129C16.7881 25.7851 17.0185 25.4872 17.2859 25.2122C18.3323 24.1718 19.8165 23.8418 21.1533 24.1901C21.6604 24.3231 22.0844 24.4835 22.845 24.5935C23.6056 24.7035 24.6566 24.653 25.2558 24.3643C25.2558 24.3643 26.2238 23.9472 26.7632 22.7143C26.2607 22.5219 25.7951 22.2239 25.3895 21.8206C25.3158 21.7473 25.2466 21.674 25.1821 21.596C25.1037 21.509 25.0576 21.3852 25.0576 21.2615C25.0668 21.0002 25.2881 20.7757 25.5647 20.7757Z" fill="#FF8C12"></path><path d="M47.6209 28.5638H40.3009C39.0794 28.5638 37.9685 27.5142 37.9685 26.2997V12.9167C37.9685 11.4318 36.8668 10.2539 35.3779 10.2539H35.1797V10.5426V26.2951C35.1797 29.1688 37.4107 31.6116 40.3009 31.6116H50.0087H50.2392V31.19C50.2438 29.7096 49.1144 28.5638 47.6209 28.5638Z" fill="white"></path><path d="M54.8353 10.2578H54.4297V10.5466V28.8198C54.4297 30.3002 55.7296 31.6155 57.2231 31.6155H57.495V31.1939V12.9161C57.495 11.4357 56.3242 10.2578 54.8353 10.2578Z" fill="white"></path><path d="M114.558 10.2572C112.271 10.2572 110.492 12.0767 110.492 14.35V20.1157V22.4898V27.3846C110.492 29.6579 112.271 31.6103 114.558 31.6103H123.975H124.16V31.1887C124.16 29.7037 123.076 28.5579 121.587 28.5579H115.747C114.47 28.5579 113.558 27.4671 113.558 26.193V22.7327H118.485C119.974 22.7327 121.09 21.5961 121.09 20.1111V19.6803H120.868H113.558V15.5325C113.558 14.2629 114.47 13.3005 115.747 13.3005H121.587C123.076 13.3005 124.16 12.0217 124.16 10.5368V10.248H123.975H114.558V10.2572Z" fill="white"></path><path d="M79.9953 12.9273L79.9907 27.5752C79.9907 28.6568 79.1057 28.8906 78.8337 28.9318C78.7461 28.9456 78.6539 28.9547 78.5663 28.9547C78.2114 28.9547 77.5753 28.831 77.2895 28.0198L71.9654 12.7394C71.3385 10.9428 69.716 9.7832 67.8307 9.7832C67.5771 9.7832 67.3052 9.80612 67.0516 9.84737C64.8851 10.2094 63.3594 11.9877 63.3594 14.1739V31.1822V31.6038H63.7005C65.194 31.6038 66.4247 30.293 66.4247 28.8127V14.1831C66.4247 13.0969 67.3006 12.8631 67.5725 12.8173C67.6601 12.8035 67.7477 12.7944 67.8353 12.7944C68.1902 12.7944 68.8217 12.9135 69.1075 13.7248L74.4362 29.0051C75.0631 30.8018 76.681 31.9613 78.5663 31.9613C78.8567 31.9613 79.1564 31.9338 79.4514 31.8742C81.5165 31.4755 83.0837 29.6285 83.0837 27.4789L83.1575 10.5394V10.2507H82.7011C81.2122 10.2507 79.9953 11.4469 79.9953 12.9273Z" fill="white"></path><path d="M149.859 31.1385L143.723 13.4381C142.949 11.2107 140.916 9.75781 138.547 9.75781C136.173 9.75781 134.14 11.1924 133.37 13.4198L127.226 31.143L127.078 31.6105H127.525H128.539C129.581 31.6105 130.508 30.868 130.849 29.8918L133.306 22.7374H139.031C140.52 22.7374 141.746 21.6008 141.746 20.1159V19.685H141.414H134.343L136.219 14.3364C136.638 13.1265 137.694 12.7231 138.538 12.7231C139.381 12.7231 140.437 13.1677 140.856 14.3823L146.236 29.9193C146.577 30.8955 147.503 31.6105 148.545 31.6105H149.554H150.002L149.859 31.1385Z" fill="white"></path><path d="M106.825 10.2578H106.179H104.405C103.538 10.2578 102.704 10.652 102.178 11.3394L96.7342 18.4159L91.2903 11.344C90.7648 10.6611 89.9305 10.2624 89.0639 10.2624H87.2892H86.6484L87.0403 10.7574L94.835 20.8954L87.0587 31.061L86.6669 31.6201H87.3122H89.0869C89.9535 31.6201 90.7832 31.1572 91.3133 30.4743L96.7388 23.3933L102.16 30.4881C102.685 31.171 103.519 31.6201 104.386 31.6201H106.161H106.806L106.414 31.061L98.6379 20.9092L106.433 10.7665L106.825 10.2578Z" fill="white"></path></svg>