<svg width="247" height="63" viewBox="0 0 247 63" fill="none" xmlns="http://www.w3.org/2000/svg">
<path d="M30.0934 46.2376C31.8914 44.2471 34.4978 42.9927 37.3988 42.9927C38.1543 42.9927 38.8871 43.0753 39.5897 43.233C39.4386 44.2095 39.4386 44.2095 39.1288 45.0283C38.26 47.2667 34.5884 47.5522 30.0934 46.2376Z" fill="#FF8C12"/>
<path d="M42.0752 34.2268C42.0903 34.2268 42.1054 34.2268 42.1205 34.2268H45.0895C45.0593 33.9714 44.9913 33.7385 44.8553 33.5282C44.8478 33.5132 44.8402 33.4907 44.8327 33.4756C42.1054 29.1866 39.839 24.5745 38.1165 19.7071C34.8453 16.9053 30.864 14.8922 26.4822 13.9758V13.9683C26.7089 12.2031 26.8222 10.4003 26.8222 8.57499C26.8222 5.69808 26.5351 2.89629 25.9836 0.177124C21.1486 6.28398 15.6714 11.865 9.66543 16.8377L9.68054 16.8452C3.87096 21.6075 0.176697 28.8185 0.176697 36.8934C0.176697 39.9205 0.697974 42.835 1.65742 45.5391C4.46023 34.362 14.5458 26.0468 26.6107 25.8665C28.3785 25.8665 30.033 25.4008 31.4684 24.5895H31.4759C31.9519 24.3266 32.4958 24.1764 33.0775 24.1764C34.6262 24.1764 35.9257 25.2505 36.2581 26.6852L36.2732 26.7604C36.4771 27.6617 36.8096 28.5105 37.2477 29.2992C37.3686 29.5096 37.565 29.7725 37.7086 29.9377L37.701 29.9302C37.7992 30.0204 37.8521 30.1481 37.8521 30.2908C37.8521 30.5762 37.6179 30.8016 37.3384 30.8016C37.21 30.8016 37.0891 30.7565 36.9984 30.6739C36.9002 30.6063 36.7793 30.426 36.7793 30.426C34.9813 28.4129 32.3598 27.1359 29.4361 27.1359C29.4361 27.1359 28.2878 27.1134 27.2755 27.1134C24.6993 27.1134 22.2667 27.7068 20.0985 28.7584C11.7279 33.0926 6.00139 41.7984 6.00139 51.8338C6.00139 52.322 6.0165 52.8103 6.03916 53.291C10.8364 59.135 18.1343 62.8682 26.3085 62.8682C27.8723 62.8682 29.4059 62.733 30.8942 62.4701L30.8867 62.4626C27.6155 59.4955 25.5681 55.2215 25.5681 50.4667C25.5681 47.7625 26.2329 45.2086 27.4115 42.9627H27.4039C27.691 42.4369 28.0687 41.9486 28.5069 41.4979C30.2218 39.7928 32.6545 39.252 34.8453 39.8229C35.6763 40.0407 36.3714 40.3036 37.6179 40.4839C38.8644 40.6642 40.5869 40.5815 41.569 40.1083C41.569 40.1083 43.1555 39.4248 44.0394 37.4042C43.216 37.0887 42.4529 36.6004 41.7881 35.9394C41.6672 35.8192 41.5539 35.6991 41.4482 35.5714C41.3197 35.4286 41.2442 35.2258 41.2442 35.023C41.2593 34.5949 41.6219 34.2268 42.0752 34.2268Z" fill="#FF8C12"/>
<path d="M78.2246 46.9888H66.2277C64.2257 46.9888 62.405 45.2687 62.405 43.2781V21.3445C62.405 18.9108 60.5994 16.9803 58.1592 16.9803H57.8344V17.4536V43.2706C57.8344 47.9804 61.4908 51.984 66.2277 51.984H82.1379H82.5157V51.2929C82.5232 48.8667 80.6723 46.9888 78.2246 46.9888Z" fill="#2A5067"/>
<path d="M90.0477 16.9879H89.3829V17.4611V47.4095C89.3829 49.8358 91.5133 51.9916 93.961 51.9916H94.4068V51.3005V21.3446C94.4068 18.9184 92.4879 16.9879 90.0477 16.9879Z" fill="#2A5067"/>
<path d="M187.927 16.9879C184.18 16.9879 181.263 19.97 181.263 23.6957V33.1452V37.0361V45.0584C181.263 48.7841 184.18 51.984 187.927 51.984H203.361H203.663V51.293C203.663 48.8593 201.888 46.9814 199.448 46.9814H189.876C187.783 46.9814 186.287 45.1936 186.287 43.1054V37.4343H194.363C196.804 37.4343 198.632 35.5714 198.632 33.1377V32.4316H198.269H186.287V25.6337C186.287 23.553 187.783 21.9756 189.876 21.9756H199.448C201.888 21.9756 203.663 19.8799 203.663 17.4461V16.9729H203.361H187.927V16.9879Z" fill="#2A5067"/>
<path d="M131.281 21.3671L131.274 45.3739C131.274 47.1466 129.823 47.5297 129.378 47.5973C129.234 47.6199 129.083 47.6349 128.939 47.6349C128.358 47.6349 127.315 47.4321 126.847 46.1025L118.121 21.0592C117.094 18.1146 114.434 16.2142 111.345 16.2142C110.929 16.2142 110.483 16.2518 110.068 16.3194C106.517 16.9128 104.016 19.8273 104.016 23.4103V51.2855V51.9765H104.575C107.023 51.9765 109.04 49.8282 109.04 47.402V23.4253C109.04 21.6451 110.476 21.262 110.921 21.1869C111.065 21.1643 111.209 21.1493 111.352 21.1493C111.934 21.1493 112.969 21.3446 113.437 22.6741L122.17 47.7175C123.198 50.662 125.85 52.5624 128.939 52.5624C129.415 52.5624 129.906 52.5174 130.39 52.4197C133.774 51.7662 136.343 48.7391 136.343 45.2162L136.464 17.4536V16.9804H135.716C133.276 16.9804 131.281 18.9409 131.281 21.3671Z" fill="#2A5067"/>
<path d="M245.781 51.2103L235.725 22.2008C234.456 18.5502 231.125 16.1691 227.242 16.1691C223.351 16.1691 220.019 18.5202 218.758 22.1708L208.687 51.2178L208.445 51.984H209.178H210.84C212.548 51.984 214.066 50.7671 214.625 49.1671L218.652 37.4417H228.035C230.475 37.4417 232.484 35.5788 232.484 33.1451V32.439H231.941H220.352L223.426 23.6731C224.114 21.69 225.844 21.029 227.226 21.029C228.609 21.029 230.339 21.7576 231.026 23.7482L239.843 49.2122C240.402 50.8122 241.92 51.984 243.628 51.984H245.282H246.015L245.781 51.2103Z" fill="#2A5067"/>
<path d="M175.257 16.9879H174.2H171.291C169.871 16.9879 168.503 17.6339 167.642 18.7606L158.72 30.3584L149.798 18.7681C148.937 17.6489 147.569 16.9954 146.149 16.9954H143.24H142.19L142.833 17.8067L155.608 34.4221L142.863 51.0827L142.221 51.9991H143.278H146.187C147.607 51.9991 148.967 51.2404 149.836 50.1212L158.728 38.5159L167.612 50.1437C168.473 51.263 169.841 51.9991 171.261 51.9991H174.17H175.227L174.585 51.0827L161.84 34.4447L174.615 17.8217L175.257 16.9879Z" fill="#2A5067"/>
</svg>
