<svg xmlns="http://www.w3.org/2000/svg" width="173" height="69" viewBox="0 0 173 69" fill="none"><path d="M27.2734 30.741C30.1637 29.7089 33.2072 29.1699 36.2765 29.1465C44.953 29.1465 49.8705 34.2197 49.8705 42.6916C49.8705 51.028 44.2874 56.4399 36.5538 56.4399C35.0411 56.435 33.5419 56.1552 32.1293 55.6147V68.9999H27.2734V30.741ZM36.332 52.327C41.915 52.327 44.842 48.5221 44.842 42.6669C44.842 36.2084 41.194 33.2284 36.1101 33.2284C34.76 33.2351 33.4183 33.4426 32.1293 33.8441V51.3912C33.4328 52.041 34.8756 52.3623 36.332 52.327Z" fill="#2A5067"></path><path d="M55.1778 23.1803C55.1778 22.3458 55.5096 21.5456 56.1001 20.9556C56.6907 20.3656 57.4916 20.0342 58.3268 20.0342C59.1619 20.0342 59.9628 20.3656 60.5534 20.9556C61.1439 21.5456 61.4757 22.3458 61.4757 23.1803C61.4782 23.5988 61.3967 24.0137 61.2359 24.4002C61.0751 24.7867 60.8383 25.1371 60.5394 25.4305C60.2406 25.7238 59.8859 25.9542 59.4963 26.1081C59.1067 26.262 58.6901 26.3362 58.2713 26.3263C57.8582 26.3341 57.4478 26.2578 57.0653 26.1018C56.6828 25.9457 56.3361 25.7132 56.0466 25.4187C55.757 25.1242 55.5307 24.774 55.3813 24.3891C55.2319 24.0042 55.1627 23.5928 55.1778 23.1803ZM55.8372 29.8049H60.6992V55.9163H55.8372V29.8049Z" fill="#2A5067"></path><path d="M69.0534 37.4583C69.0534 29.2696 76.4912 29.1465 78.9129 29.1465C80.016 29.1465 83.3498 29.4172 84.1262 29.9221L82.4131 34.2319C81.4 33.8 80.3103 33.5761 79.2088 33.5732C75.7456 33.5732 73.903 34.4721 73.903 38.6157V55.9289H69.041L69.0534 37.4583Z" fill="#2A5067"></path><path d="M87.6212 23.1802C87.6571 22.369 88.0049 21.6031 88.5921 21.0418C89.1792 20.4805 89.9605 20.167 90.7732 20.167C91.5858 20.167 92.3672 20.4805 92.9543 21.0418C93.5415 21.6031 93.8893 22.369 93.9252 23.1802C93.927 23.5991 93.8447 24.0139 93.6832 24.4004C93.5217 24.787 93.2843 25.1374 92.985 25.4307C92.6856 25.724 92.3305 25.9545 91.9406 26.1083C91.5506 26.2621 91.1338 26.3361 90.7147 26.3263C90.3015 26.3341 89.8912 26.2578 89.5087 26.1017C89.1262 25.9456 88.7795 25.7132 88.49 25.4187C88.2004 25.1242 87.974 24.7739 87.8246 24.389C87.6752 24.0041 87.606 23.5927 87.6212 23.1802ZM88.2867 29.8048H93.1488V55.9162H88.2867V29.8048Z" fill="#2A5067"></path><path d="M12.1027 19.2031C5.08386 19.2031 1.04757 23.5128 1.04757 28.7523C1.04757 39.6869 16.9647 38.6895 16.9647 46.915C16.9647 50.837 13.6494 52.2716 10.0013 52.2716C7.16212 52.2553 4.3915 51.3983 2.03971 49.8089L0 53.6136C2.99533 55.5415 6.49415 56.5421 10.0568 56.4891C17.1249 56.4891 22.1533 52.7332 22.1533 46.5456C22.1533 35.18 6.1869 36.0051 6.1869 28.2782C6.1869 24.6887 9.22491 23.4206 12.2691 23.4206C14.7935 23.4348 17.2841 24.0021 19.5652 25.0828L20.8593 21.1178C18.0957 19.9079 15.1195 19.2572 12.1027 19.2031Z" fill="#2A5067"></path><path d="M112.263 29.1465C104.308 29.1465 99.002 35.3035 99.002 43.1104C99.002 50.4986 103.476 56.4706 111.653 56.4706C114.606 56.4745 117.498 55.6305 119.984 54.0388L118.549 50.6156C116.673 51.7833 114.516 52.4216 112.306 52.4626C107.278 52.4626 104.018 48.9839 104.018 42.8578C104.018 37.3167 107.278 33.1978 112.645 33.1978C114.667 33.237 116.652 33.7382 118.45 34.663L120.108 31.3567C117.714 29.9875 115.02 29.2284 112.263 29.1465Z" fill="#2A5067"></path><path d="M144.819 40.7706V38.2525C144.819 31.9602 141.066 29.1465 135.151 29.1465C131.826 29.1439 128.561 30.0395 125.704 31.7385L127.417 35.1064C129.559 33.7791 132.027 33.0713 134.547 33.0622C137.69 33.0622 139.957 34.6632 139.957 38.3635V39.7424L135.101 39.9087C132.446 40.0195 130.344 40.3519 128.526 41.2323C127.162 41.8286 126.01 42.8224 125.221 44.0835C124.432 45.3446 124.041 46.8142 124.102 48.3004C124.102 53.3244 128.884 56.4706 134.467 56.4706C137.977 56.4381 141.464 55.8989 144.819 54.8697V40.7769V40.7706ZM131.121 44.3231C132.559 43.672 134.126 43.3522 135.705 43.3873L139.957 43.215V51.7607C138.329 52.202 136.646 52.4093 134.96 52.3763C131.114 52.3763 129.075 50.7262 129.075 48.0172C129.037 47.2722 129.209 46.5316 129.57 45.8789C129.932 45.2261 130.469 44.6871 131.121 44.3231Z" fill="#2A5067"></path><path d="M148.664 23.8948C148.535 23.9256 147.155 23.944 146.434 23.9625C140.986 24.0795 120.552 22.5033 111.74 0C111.74 0 125.784 1.66226 136.796 14.6779C140.894 19.511 143.574 21.6906 145.023 22.7188C146.286 23.6115 148.424 23.8394 148.664 23.8948Z" fill="#2A5067"></path><path d="M151.154 23.6236C150.341 23.781 149.516 23.8718 148.689 23.8947C148.689 23.8947 146.279 23.6237 145.047 22.7187C145.047 22.7187 148.935 24.8366 154.019 18.0271C157.593 13.237 164.131 11.9563 172.173 13.4401C172.149 13.4401 159.38 21.9612 151.154 23.6236Z" fill="#2A5067"></path><path d="M155.727 24.0547C153.907 24.6304 152.02 24.9698 150.113 25.0645C150.113 25.0645 153.299 27.2501 156.46 26.9792C156.485 26.973 157.095 25.7109 155.727 24.0547Z" fill="#2A5067"></path></svg>