<svg xmlns="http://www.w3.org/2000/svg" width="87" height="36" viewBox="0 0 87 36" fill="none"><path d="M13.625 16.5362C15.0693 16.0134 16.5901 15.7404 18.1238 15.7285C22.4594 15.7285 24.9167 18.2984 24.9167 22.5897C24.9167 26.8125 22.1269 29.5539 18.2624 29.5539C17.5065 29.5514 16.7574 29.4097 16.0515 29.1359V35.9161H13.625V16.5362ZM18.1515 27.4705C20.9413 27.4705 22.404 25.5432 22.404 22.5772C22.404 19.3057 20.5811 17.7962 18.0407 17.7962C17.366 17.7996 16.6956 17.9047 16.0515 18.1081V26.9965C16.7028 27.3256 17.4238 27.4884 18.1515 27.4705Z" fill="white"></path><path d="M27.5713 12.7069C27.5713 12.2842 27.7371 11.8789 28.0322 11.58C28.3273 11.2812 28.7275 11.1133 29.1448 11.1133C29.5622 11.1133 29.9624 11.2812 30.2575 11.58C30.5526 11.8789 30.7184 12.2842 30.7184 12.7069C30.7196 12.9189 30.6789 13.1291 30.5985 13.3249C30.5182 13.5207 30.3998 13.6981 30.2505 13.8467C30.1012 13.9954 29.924 14.112 29.7293 14.19C29.5346 14.2679 29.3264 14.3056 29.1171 14.3005C28.9107 14.3045 28.7056 14.2658 28.5145 14.1868C28.3234 14.1077 28.1501 13.99 28.0055 13.8408C27.8608 13.6916 27.7476 13.5142 27.673 13.3192C27.5984 13.1243 27.5638 12.9159 27.5713 12.7069ZM27.9008 16.0626H30.3304V29.2892H27.9008V16.0626Z" fill="white"></path><path d="M34.5062 19.9388C34.5062 15.7909 38.2228 15.7285 39.433 15.7285C39.9842 15.7285 41.6501 15.8657 42.0381 16.1214L41.182 18.3045C40.6758 18.0857 40.1312 17.9723 39.5808 17.9709C37.8503 17.9709 36.9295 18.4262 36.9295 20.5251V29.295H34.5L34.5062 19.9388Z" fill="white"></path><path d="M43.7823 12.706C43.8002 12.2951 43.974 11.9071 44.2674 11.6228C44.5608 11.3385 44.9512 11.1797 45.3573 11.1797C45.7634 11.1797 46.1538 11.3385 46.4472 11.6228C46.7407 11.9071 46.9144 12.2951 46.9324 12.706C46.9333 12.9182 46.8921 13.1283 46.8114 13.3241C46.7307 13.5199 46.6121 13.6974 46.4625 13.846C46.313 13.9946 46.1355 14.1113 45.9407 14.1892C45.7458 14.2672 45.5375 14.3046 45.3281 14.2996C45.1216 14.3036 44.9166 14.2649 44.7254 14.1859C44.5343 14.1068 44.3611 13.9891 44.2164 13.8399C44.0717 13.6907 43.9586 13.5133 43.8839 13.3183C43.8093 13.1234 43.7747 12.915 43.7823 12.706ZM44.1148 16.0617H46.5444V29.2883H44.1148V16.0617Z" fill="white"></path><path d="M6.04768 10.6914C2.54039 10.6914 0.52347 12.8744 0.52347 15.5285C0.52347 21.0674 8.47723 20.5621 8.47723 24.7287C8.47723 26.7154 6.82058 27.4421 4.99765 27.4421C3.5789 27.4338 2.19442 26.9997 1.01924 26.1946L0 28.1219C1.49676 29.0985 3.24511 29.6053 5.02536 29.5785C8.55728 29.5785 11.07 27.6759 11.07 24.5416C11.07 18.7844 3.09158 19.2023 3.09158 15.2883C3.09158 13.4701 4.60967 12.8278 6.13083 12.8278C7.3923 12.8349 8.63685 13.1223 9.77668 13.6697L10.4233 11.6613C9.04237 11.0484 7.55517 10.7188 6.04768 10.6914Z" fill="white"></path><path d="M56.0953 15.7285C52.12 15.7285 49.4688 18.8473 49.4688 22.8019C49.4688 26.5443 51.7043 29.5694 55.7905 29.5694C57.2661 29.5714 58.7112 29.1439 59.9537 28.3376L59.2362 26.6036C58.299 27.1951 57.221 27.5184 56.1169 27.5392C53.6042 27.5392 51.9753 25.7771 51.9753 22.6739C51.9753 19.8671 53.6042 17.7807 56.2863 17.7807C57.2964 17.8006 58.2887 18.0544 59.1869 18.5229L60.0152 16.8481C58.8192 16.1545 57.4729 15.77 56.0953 15.7285Z" fill="white"></path><path d="M72.3634 21.6166V20.3411C72.3634 17.1538 70.4881 15.7285 67.532 15.7285C65.8704 15.7272 64.2393 16.1808 62.8115 17.0415L63.6675 18.7475C64.7376 18.0752 65.9709 17.7166 67.2302 17.712C68.8007 17.712 69.9338 18.523 69.9338 20.3973V21.0958L67.5074 21.1801C66.1802 21.2362 65.1302 21.4046 64.2218 21.8506C63.5402 22.1526 62.9646 22.656 62.5701 23.2948C62.1756 23.9336 61.9807 24.678 62.0108 25.4309C62.0108 27.9757 64.4004 29.5694 67.1902 29.5694C68.9442 29.5529 70.6866 29.2798 72.3634 28.7585V21.6198V21.6166ZM65.5181 23.4162C66.2371 23.0863 67.0201 22.9243 67.8091 22.9421L69.9338 22.8549V27.1836C69.1202 27.4072 68.2794 27.5122 67.4365 27.4955C65.5151 27.4955 64.4958 26.6596 64.4958 25.2874C64.4771 24.91 64.5629 24.5349 64.7435 24.2042C64.9242 23.8736 65.1925 23.6006 65.5181 23.4162Z" fill="white"></path><path d="M74.2869 13.0687C74.2222 13.0843 73.5325 13.0936 73.1722 13.1029C70.4501 13.1622 60.2393 12.3638 55.8359 0.964844C55.8359 0.964844 62.8536 1.80685 68.3563 8.39985C70.404 10.8481 71.7434 11.9521 72.4671 12.4729C73.0983 12.9251 74.1668 13.0406 74.2869 13.0687Z" fill="white"></path><path d="M75.5281 12.9306C75.122 13.0103 74.71 13.0564 74.2964 13.0679C74.2964 13.0679 73.0924 12.9307 72.4766 12.4722C72.4766 12.4722 74.4196 13.545 76.96 10.0957C78.746 7.66934 82.0131 7.02058 86.0315 7.7722C86.0192 7.7722 79.639 12.0885 75.5281 12.9306Z" fill="white"></path><path d="M77.813 13.1504C76.9035 13.442 75.9607 13.6139 75.0078 13.6619C75.0078 13.6619 76.5998 14.769 78.1795 14.6318C78.1918 14.6287 78.4966 13.9893 77.813 13.1504Z" fill="white"></path></svg>