<svg xmlns="http://www.w3.org/2000/svg" width="185" height="54" viewBox="0 0 185 54" fill="none"><path d="M35.6037 0.435593H5.3409C4.84583 0.43312 4.35517 0.529169 3.89753 0.717883C3.43989 0.906597 3.02437 1.18436 2.67516 1.53499C2.32594 1.88562 2.05002 2.30219 1.86339 2.76035C1.67676 3.21851 1.58317 3.70904 1.58807 4.20367V28.8005C8.98278 27.5691 13.9126 23.0068 16.8643 19.0788C14.8985 16.4067 11.2875 9.99727 12.7664 0.497222H16.8273C15.2498 8.80284 18.6329 14.2454 20.2474 16.4065C24.9862 16.4988 32.88 17.8533 39.3504 24.0656V4.20367C39.3545 3.70979 39.2605 3.22014 39.074 2.76276C38.8874 2.30537 38.612 1.88928 38.2636 1.5389C37.9152 1.18852 37.5008 0.910561 37.0442 0.72119C36.5877 0.531819 36.0981 0.434763 35.6037 0.435593V0.435593Z" fill="#2A5067"></path><path d="M6.0191 50.7996C6.0191 52.4743 5.05164 53.2623 3.4433 53.2623C1.83496 53.2623 0.861328 52.4619 0.861328 50.7996V46.9639H2.20469V50.7996C2.20469 51.4768 2.36491 52.1169 3.43713 52.1169C4.36763 52.1169 4.66958 51.6985 4.66958 50.7996V46.9639H5.9883L6.0191 50.7996Z" fill="#2A5067"></path><path d="M7.13477 47H8.45967L10.9677 51.1192H11.0047V47H12.2372V53.1569H10.9122L8.39803 49.0319H8.36722V53.1569H7.13477V47Z" fill="#2A5067"></path><path d="M13.4316 47H17.9424V48.1268H14.7504V49.4444H17.6836V50.4726H14.7504V51.9871H18.0103V53.1139H13.4316V47Z" fill="#2A5067"></path><path d="M21.2637 47.0002H25.5157V48.1269H22.6194V49.5432H25.1336V50.602H22.6194V53.151H21.3068V46.9941L21.2637 47.0002Z" fill="#2A5067"></path><path d="M26.2363 47H27.5551V53.1569H26.2363V47Z" fill="#2A5067"></path><path d="M28.7383 47H30.0632V51.9871H33.0149V53.1139H28.7568L28.7383 47Z" fill="#2A5067"></path><path d="M33.7676 47H35.0925V53.1569H33.7676V47Z" fill="#2A5067"></path><path d="M37.8959 47H39.2454L41.5008 53.1569H40.1513L39.7014 51.8025H37.4399L36.9592 53.1569H35.6035L37.8959 47ZM37.7665 50.7621H39.344L38.5614 48.5332L37.7665 50.7621Z" fill="#2A5067"></path><path d="M42.0488 47H43.3737V51.9871H46.3069V53.1139H42.0488V47Z" fill="#2A5067"></path><path d="M47.0469 47H51.5577V48.1268H48.3656V49.4444H51.2988V50.4726H48.3656V51.9871H51.6254V53.1139H47.0469V47V47Z" fill="#2A5067"></path><path d="M54.8789 47H57.4917C59.0384 47 60.2278 47.9975 60.2278 50.0231C60.2278 51.7963 59.3281 53.1016 57.4917 53.1016H54.8789V47ZM56.1976 51.9871H57.3931C58.1634 51.9871 58.9091 51.5069 58.9091 50.1401C58.9091 48.9087 58.49 48.1144 57.1651 48.1144H56.2346V51.9748L56.1976 51.9871Z" fill="#2A5067"></path><path d="M66.2555 50.7996C66.2555 52.4743 65.288 53.2623 63.6796 53.2623C62.0713 53.2623 61.0977 52.4619 61.0977 50.7996V46.9639H62.4225V50.7996C62.4225 51.4768 62.5827 52.1169 63.655 52.1169C64.5855 52.1169 64.8874 51.6985 64.8874 50.7996V46.9639H66.2123V50.7996H66.2555Z" fill="#2A5067"></path><path d="M58.9407 23.2038C58.9407 26.9348 55.9459 28.5481 52.8463 28.5481C51.1737 28.6179 49.527 28.1188 48.1753 27.1321L47.9473 26.9659L49.3707 24.3615L49.5926 24.4908L49.6912 24.5521C50.6442 25.3123 51.824 25.733 53.0435 25.7468C54.621 25.7099 55.9089 25.0693 55.9089 23.524C55.9089 22.2002 54.9106 21.6768 53.6535 21.1412L52.2362 20.5625C50.2088 19.6882 48.4649 18.3709 48.4649 15.7296V15.6986C48.4649 12.8295 50.8805 10.7055 54.1404 10.7055C55.7254 10.6414 57.2911 11.0717 58.6203 11.9368L58.8421 12.0968L57.3262 14.7074L57.1352 14.5782L57.0366 14.4796C56.2271 13.7702 55.1796 13.3922 54.1033 13.4207C52.1068 13.4515 51.5275 14.5164 51.4967 15.4461V15.514C51.4967 16.6099 52.4642 17.1517 53.5549 17.6073L54.9784 18.223C57.1044 19.1465 58.9715 20.464 58.9407 23.2038Z" fill="#2A5067"></path><path d="M76.9215 10.9766V19.6392C76.9215 24.5339 73.9266 28.5237 68.9968 28.5606C64.067 28.5976 61.066 24.5339 61.0352 19.6392V10.9766H64.03V19.6392C64.067 23.0193 65.6754 25.6607 68.9968 25.6607C72.3183 25.6607 73.9266 23.0501 73.9266 19.6392V10.9766H76.9215Z" fill="#2A5067"></path><path d="M126.818 10.9336C122.658 25.0944 118.986 28.2218 118.986 28.2218H116.853C116.853 28.2218 113.156 25.0698 109.027 10.9336H112.41C112.41 10.9336 114.697 19.7563 117.956 24.8419C121.179 19.7563 123.502 10.9336 123.502 10.9336H126.818Z" fill="#2A5067"></path><path d="M132.098 13.7655V17.9214H139.16V20.692H132.098V25.4575H141.027V28.2158H129.104V10.9766H141.027V13.7778L132.098 13.7655Z" fill="#2A5067"></path><path d="M155.564 28.0002C153.453 23.2184 150.469 18.8714 146.764 15.1817V28.2158H143.77V10.9766H146.536C146.536 10.9766 151.503 14.4551 156.143 22.4098V10.9766H159.138V28.2711H155.854C155.644 28.2588 155.644 28.1603 155.564 28.0002Z" fill="#2A5067"></path><path d="M164.888 10.9766V28.2711H161.924V10.9766H164.888Z" fill="#2A5067"></path><path d="M178.673 23.4934C179.415 24.2428 180.306 24.8275 181.289 25.2094C182.273 25.5913 183.325 25.7619 184.379 25.71H184.601V28.5112H184.311C181.507 28.5112 178.993 28.1911 176.35 25.4328L172.936 21.8926H170.649V28.271H167.648V10.9765H173.996C174.719 10.9634 175.438 11.0945 176.11 11.3622C176.783 11.6298 177.395 12.0285 177.911 12.5352C178.428 13.0419 178.838 13.6466 179.118 14.3135C179.398 14.9803 179.542 15.6959 179.542 16.4191C179.546 17.432 179.264 18.4258 178.729 19.2861C178.194 20.1465 177.427 20.8387 176.516 21.2832L178.673 23.4934ZM170.613 19.079H173.743C174.103 19.0963 174.463 19.0403 174.8 18.9146C175.138 18.7889 175.447 18.596 175.707 18.3476C175.968 18.0992 176.176 17.8004 176.318 17.4694C176.46 17.1385 176.533 16.7824 176.533 16.4224C176.533 16.0623 176.46 15.7059 176.318 15.375C176.176 15.044 175.968 14.7452 175.707 14.4968C175.447 14.2484 175.138 14.0555 174.8 13.9298C174.463 13.8042 174.103 13.7481 173.743 13.7654H170.613V19.079Z" fill="#2A5067"></path><path d="M112.022 28.031C110.346 22.2989 107.708 14.4117 104.319 10.9947L104.251 10.9333H102.094L102.033 10.9947C99.0995 13.9561 96.7147 20.2732 95.0386 25.6482C93.3945 25.4723 91.8661 24.7196 90.725 23.5239L88.5682 21.3014C89.493 20.8578 90.2703 20.1574 90.8069 19.2839C91.3435 18.4103 91.6167 17.4006 91.5939 16.3759C91.5948 15.6485 91.4505 14.9283 91.1694 14.2574C90.8882 13.5864 90.4759 12.9781 89.9565 12.4683C89.4371 11.9586 88.8212 11.5576 88.1447 11.2887C87.4683 11.0198 86.7449 10.8884 86.017 10.9024H79.6699V28.2279H82.6709V21.8494H84.9571L88.371 25.4266C90.916 28.0987 93.3686 28.5051 96.043 28.5051H97.5589C98.0088 26.8612 98.5264 25.0264 99.0749 23.3517H107.326C107.868 24.9956 108.257 26.4731 108.706 28.1169L108.743 28.2772H112.127L112.022 28.031ZM85.789 19.0789H82.6278V13.7653H85.7521C86.1116 13.747 86.4712 13.8016 86.8091 13.9258C87.147 14.05 87.4562 14.2415 87.7182 14.4883C87.9801 14.735 88.1894 15.0322 88.3334 15.3619C88.4773 15.6916 88.553 16.0469 88.5559 16.4066C88.5651 16.7679 88.499 17.1273 88.362 17.4618C88.225 17.7963 88.0199 18.0986 87.7598 18.3498C87.4997 18.601 87.1902 18.7956 86.851 18.921C86.5118 19.0465 86.1501 19.1003 85.789 19.0789V19.0789ZM99.9622 20.7534C100.74 18.4613 101.824 16.2848 103.185 14.2826C104.538 16.2897 105.621 18.465 106.408 20.7534H99.9622Z" fill="#2A5067"></path><path d="M74.8262 47.4803C74.3193 47.3 73.7867 47.2022 73.2487 47.1908C72.9332 47.1657 72.616 47.2095 72.3191 47.3188C72.0221 47.4282 71.7524 47.6006 71.5286 47.8242C71.3048 48.0478 71.1322 48.3172 71.0228 48.614C70.9134 48.9107 70.8697 49.2277 70.8947 49.5429C70.8847 49.8603 70.9411 50.1762 71.0602 50.4706C71.1792 50.765 71.3584 51.0313 71.5863 51.2526C71.8142 51.4739 72.0858 51.6452 72.3837 51.7558C72.6816 51.8664 72.9993 51.9137 73.3165 51.8947C73.8286 51.8716 74.3357 51.7848 74.8262 51.6362L75.2144 52.8675C75.0123 52.9412 74.8066 53.0049 74.5982 53.0584C74.1537 53.1618 73.699 53.2153 73.2426 53.2184C70.7777 53.2184 69.1816 51.7715 69.1816 49.5243C69.1816 47.277 70.7284 45.8301 73.0823 45.8301C73.7989 45.8268 74.5097 45.9587 75.1775 46.2182L74.8262 47.4803Z" fill="#2A5067"></path><path d="M75.9537 47.7391H77.4389V48.5334C77.5719 48.2575 77.7843 48.0276 78.0488 47.8729C78.3134 47.7183 78.618 47.6459 78.9239 47.6652C79.1537 47.669 79.381 47.7127 79.5956 47.7944L79.2321 49.1491C79.0834 49.1245 78.9328 49.1143 78.7822 49.1184C78.5982 49.0945 78.411 49.1208 78.2407 49.1945C78.0704 49.2682 77.9232 49.3864 77.8147 49.5369C77.6176 49.7955 77.5867 50.0172 77.5867 50.7253V53.108H75.9414V47.7331L75.9537 47.7391Z" fill="#2A5067"></path><path d="M81.2101 50.9962C81.2717 51.6735 81.8263 52.0613 82.6952 52.0613C83.1838 52.0415 83.6644 51.9309 84.1125 51.7352L84.5315 52.7387C84.4049 52.7986 84.2753 52.8518 84.1433 52.8986C83.64 53.092 83.105 53.1903 82.5657 53.1881C80.7602 53.1881 79.5647 52.0614 79.5647 50.4175C79.5398 50.0542 79.591 49.6895 79.7148 49.347C79.8387 49.0045 80.0326 48.6915 80.2842 48.428C80.5357 48.1644 80.8395 47.9563 81.1761 47.8165C81.5127 47.6767 81.8747 47.6083 82.2392 47.616C83.8845 47.616 84.8211 48.7427 84.8211 50.6944V50.9839H81.2101V50.9962ZM81.1792 49.8695H83.3669C83.3701 49.7278 83.3452 49.5869 83.2936 49.4549C83.2419 49.3229 83.1645 49.2024 83.066 49.1005C82.9674 48.9985 82.8495 48.917 82.7192 48.8609C82.5889 48.8048 82.4488 48.7753 82.3069 48.7737C82.0141 48.7735 81.7328 48.8872 81.5223 49.0905C81.3119 49.2939 81.1888 49.5711 81.1792 49.8635V49.8695ZM82.4672 45.0732L83.7859 45.7506L82.498 47.3021L81.4997 46.8157L82.4672 45.0732Z" fill="#2A5067"></path><path d="M89.43 45.3252H91.0692V53.0829H89.5903V52.344C89.3878 52.6149 89.1246 52.8347 88.8217 52.9855C88.5188 53.1363 88.1847 53.2139 87.8463 53.2122C86.4598 53.2122 85.5293 52.1163 85.5293 50.4416C85.5293 48.7669 86.4598 47.6094 87.8463 47.6094C88.154 47.6016 88.4594 47.6641 88.7392 47.7922C89.019 47.9202 89.2658 48.1105 89.4609 48.3483V45.3252H89.43ZM87.1747 50.4416C87.1747 51.3467 87.6245 51.9252 88.3023 51.9252C88.9802 51.9252 89.4609 51.3465 89.4609 50.4106C89.4609 49.4748 89.011 48.8961 88.3023 48.8961C87.5937 48.8961 87.1747 49.5119 87.1747 50.4416Z" fill="#2A5067"></path><path d="M92.1367 45.4854H93.8128V47.0309H92.1367V45.4854ZM92.1367 47.7389H93.782V53.0831H92.1367V47.7389Z" fill="#2A5067"></path><path d="M94.4905 47.7387H95.2916V46.415H96.9369V47.7387H98.1694V48.9701H96.9369V51.4328C96.9369 51.7899 97.2266 51.9809 97.6826 51.9809C97.8667 51.9753 98.0493 51.9443 98.2249 51.8886L98.4221 52.9474C98.0264 53.0898 97.6101 53.1669 97.1896 53.1753C96.9352 53.2006 96.6783 53.1738 96.4346 53.0965C96.1909 53.0192 95.9655 52.8931 95.7723 52.7258C95.3841 52.3995 95.2855 52.0486 95.2855 51.2113V48.9578H94.4844V47.7264L94.4905 47.7387Z" fill="#2A5067"></path><path d="M100.968 45.9971H103.482L105.029 50.3439C105.154 50.8724 105.218 51.4138 105.22 51.957C105.241 51.4148 105.307 50.8753 105.417 50.3439L106.933 45.9971H109.428V53.1144H107.814L107.845 48.3798C107.845 48.2875 107.913 47.7086 107.974 47.1915C107.913 47.5116 107.876 47.641 107.814 47.8688C107.752 48.0966 107.715 48.1582 107.654 48.3798L106.008 53.1514H104.431L102.755 48.3798C102.689 48.2136 102.635 48.0428 102.595 47.8688C102.527 47.641 102.496 47.5116 102.397 47.1915L102.434 47.481L102.465 47.8688C102.465 48.1889 102.527 48.3183 102.527 48.3798L102.564 53.1144H100.949L100.968 45.9971Z" fill="#2A5067"></path><path d="M115.535 50.8916C115.535 52.3447 114.568 53.2435 112.922 53.2435C111.277 53.2435 110.248 52.3754 110.248 50.8916V47.7393H111.893V50.6391C111.868 50.9126 111.912 51.1882 112.023 51.4397C112.119 51.5835 112.248 51.7024 112.399 51.7869C112.55 51.8714 112.719 51.919 112.892 51.9258C113.569 51.9258 113.89 51.4764 113.89 50.6944V47.8255H115.535V50.904V50.8916Z" fill="#2A5067"></path><path d="M116.244 47.7387H117.051V46.415H118.672V47.7387H119.904V48.9701H118.672V51.4328C118.672 51.7899 118.961 51.9809 119.411 51.9809C119.597 51.9749 119.782 51.9439 119.96 51.8886L120.151 52.9474C119.755 53.0898 119.339 53.1669 118.918 53.1753C118.664 53.1995 118.407 53.1722 118.164 53.095C117.92 53.0178 117.695 52.8922 117.501 52.7258C117.119 52.3995 117.02 52.0486 117.02 51.2113V48.9578H116.213V47.7264L116.244 47.7387Z" fill="#2A5067"></path><path d="M126.066 50.8916C126.066 52.3447 125.068 53.2435 123.454 53.2435C121.839 53.2435 120.779 52.3754 120.779 50.8916V47.7393H122.425V50.6391C122.399 50.9126 122.444 51.1882 122.554 51.4397C122.65 51.5835 122.779 51.7024 122.93 51.7869C123.081 51.8714 123.25 51.919 123.423 51.9258C124.101 51.9258 124.458 51.4764 124.458 50.6944V47.8255H126.066V50.904V50.8916Z" fill="#2A5067"></path><path d="M128.296 50.9962C128.364 51.6735 128.912 52.0613 129.781 52.0613C130.27 52.0415 130.75 51.9309 131.198 51.7352L131.617 52.7387C131.494 52.805 131.364 52.8584 131.229 52.8986C130.726 53.0927 130.191 53.191 129.652 53.1881C127.846 53.1881 126.651 52.0614 126.651 50.4175C126.626 50.0536 126.677 49.6884 126.801 49.3455C126.925 49.0025 127.12 48.6895 127.372 48.4258C127.624 48.1622 127.929 47.9541 128.266 47.8147C128.604 47.6753 128.966 47.6074 129.331 47.616C130.97 47.616 131.907 48.7427 131.907 50.6944V50.9839H128.296V50.9962ZM128.296 49.8695H130.49C130.493 49.5831 130.383 49.307 130.183 49.1017C129.983 48.8963 129.71 48.7785 129.424 48.7737C129.278 48.7696 129.132 48.7945 128.996 48.8473C128.86 48.9002 128.735 48.9797 128.63 49.0812C128.525 49.1827 128.442 49.3044 128.384 49.4387C128.327 49.573 128.297 49.7174 128.296 49.8635V49.8695Z" fill="#2A5067"></path><path d="M132.777 45.3252H134.423V53.0829H132.777V45.3252Z" fill="#2A5067"></path><path d="M151.946 49.2165C152.551 48.9045 153.033 48.3989 153.315 47.7807C153.598 47.1624 153.665 46.4674 153.505 45.8067C153.345 45.1461 152.968 44.5581 152.434 44.137C151.9 43.716 151.24 43.4861 150.56 43.4844H147.078V53.0831H148.723V49.5429H149.956L151.805 51.5376C152.35 52.1367 153.026 52.6022 153.78 52.8979C154.535 53.1937 155.348 53.3118 156.155 53.2431H156.315V51.6978H156.186C155.615 51.719 155.045 51.6201 154.515 51.408C153.984 51.1959 153.504 50.8753 153.105 50.4665L151.946 49.2165ZM148.723 45.0359H150.43C150.631 45.0229 150.831 45.0513 151.02 45.1189C151.209 45.1865 151.382 45.2921 151.528 45.4291C151.675 45.5662 151.791 45.7317 151.871 45.9156C151.951 46.0995 151.992 46.2977 151.992 46.4982C151.992 46.6986 151.951 46.8969 151.871 47.0808C151.791 47.2647 151.675 47.4305 151.528 47.5675C151.382 47.7046 151.209 47.8101 151.02 47.8778C150.831 47.9454 150.631 47.9734 150.43 47.9604H148.723V45.0359Z" fill="#2A5067"></path><path d="M146.248 52.9233C145.348 49.7648 143.9 45.3872 142.057 43.4848V43.4541H140.856V43.4848C139.007 45.3872 137.565 49.7648 136.665 52.9233L136.598 53.0835H138.446L138.483 52.9849C138.736 52.086 138.933 51.2487 139.223 50.3436H143.703C143.992 51.2487 144.22 52.086 144.442 52.9849V53.0835H146.291L146.248 52.9233ZM143.167 48.8967H139.691C140.104 47.6324 140.689 46.4309 141.429 45.3258C142.142 46.4491 142.731 47.6464 143.185 48.8967H143.167Z" fill="#2A5067"></path><path d="M157.172 53.0835H158.817V43.4541H157.172V53.0835ZM161.103 48.0901L166.261 43.4541H164.074L158.848 48.1271L162.04 51.5073C162.585 52.1064 163.262 52.5719 164.016 52.8677C164.771 53.1634 165.583 53.2816 166.391 53.2128H166.551V51.6673H166.421C165.844 51.6907 165.267 51.5934 164.729 51.3814C164.191 51.1693 163.703 50.8472 163.297 50.4359L161.103 48.0901Z" fill="#2A5067"></path><path d="M184.502 52.9229C183.602 49.7644 182.154 45.3869 180.317 43.5214L180.28 43.4844H179.122V43.5214C177.273 45.4177 175.831 49.7644 174.932 52.9229V53.0831H176.78V52.9845C177.039 52.0856 177.23 51.2483 177.52 50.3432H182C182.289 51.2483 182.517 52.0856 182.745 52.9845V53.0831H184.594L184.502 52.9229ZM181.42 48.9273H177.945C178.36 47.664 178.945 46.4625 179.683 45.3561C180.424 46.4591 181.004 47.6616 181.408 48.9273H181.42Z" fill="#2A5067"></path><path d="M174.095 44.9995V43.4541H167.588V53.0527H174.095V51.5011H169.233V48.866H173.066V47.3145H169.233V44.9995H174.095Z" fill="#2A5067"></path><path d="M20.653 20.5254C17.88 24.5212 11.5267 31.2507 1.60547 32.7345V34.44C1.60466 34.9305 1.70063 35.4164 1.88794 35.8698C2.07524 36.3231 2.35019 36.7351 2.69703 37.0822C3.04388 37.4293 3.45582 37.7048 3.90929 37.8927C4.36276 38.0806 4.84889 38.1774 5.33981 38.1774H35.6027C36.5947 38.1774 37.5461 37.7837 38.2476 37.0828C38.9491 36.3819 39.3432 35.4311 39.3432 34.44V30.512C33.5075 22.1078 24.8064 20.6547 20.653 20.5254Z" fill="#2A5067"></path></svg>