<svg xmlns="http://www.w3.org/2000/svg" width="94" height="28" viewBox="0 0 94 28" fill="none"><path d="M18.2687 0.341821H3.06515C2.81643 0.340562 2.56993 0.389445 2.34002 0.48549C2.1101 0.581535 1.90136 0.7229 1.72591 0.901351C1.55047 1.0798 1.41185 1.29181 1.31809 1.52499C1.22433 1.75817 1.17731 2.00782 1.17978 2.25956V14.7779C4.89477 14.1512 7.37142 11.8293 8.85432 9.83012C7.86676 8.47019 6.05261 5.20817 6.79561 0.373186H8.83575C8.04322 4.60027 9.74284 7.37023 10.5539 8.47008C12.9346 8.51709 16.9004 9.20644 20.151 12.3681V2.25956C20.1531 2.0082 20.1058 1.759 20.0121 1.52621C19.9184 1.29343 19.7801 1.08166 19.605 0.90334C19.43 0.725016 19.2218 0.583552 18.9924 0.487173C18.7631 0.390794 18.5171 0.341398 18.2687 0.341821Z" fill="white"></path><path d="M3.40369 25.9736C3.40369 26.826 2.91765 27.227 2.10964 27.227C1.30164 27.227 0.8125 26.8197 0.8125 25.9736V24.0215H1.48738V25.9736C1.48738 26.3183 1.56787 26.6441 2.10655 26.6441C2.57401 26.6441 2.72571 26.4311 2.72571 25.9736V24.0215H3.38821L3.40369 25.9736Z" fill="white"></path><path d="M3.96094 24.0391H4.62655L5.88654 26.1355H5.90513V24.0391H6.5243V27.1726H5.85869L4.59558 25.0732H4.58011V27.1726H3.96094V24.0391Z" fill="white"></path><path d="M7.125 24.0391H9.39116V24.6125H7.78751V25.2831H9.26114V25.8064H7.78751V26.5772H9.42523V27.1507H7.125V24.0391Z" fill="white"></path><path d="M11.0625 24.0402H13.1986V24.6136H11.7436V25.3344H13.0067V25.8733H11.7436V27.1706H11.0842V24.0371L11.0625 24.0402Z" fill="white"></path><path d="M13.5625 24.0391H14.225V27.1726H13.5625V24.0391Z" fill="white"></path><path d="M14.8203 24.0391H15.4859V26.5772H16.9688V27.1507H14.8296L14.8203 24.0391Z" fill="white"></path><path d="M17.3438 24.0391H18.0094V27.1726H17.3438V24.0391Z" fill="white"></path><path d="M19.4173 24.0391H20.0952L21.2283 27.1726H20.5503L20.3243 26.4833H19.1882L18.9467 27.1726H18.2656L19.4173 24.0391ZM19.3523 25.9537H20.1448L19.7516 24.8194L19.3523 25.9537Z" fill="white"></path><path d="M21.5078 24.0391H22.1734V26.5772H23.647V27.1507H21.5078V24.0391Z" fill="white"></path><path d="M24.0156 24.0391H26.2818V24.6125H24.6781V25.2831H26.1517V25.8064H24.6781V26.5772H26.3158V27.1507H24.0156V24.0391Z" fill="white"></path><path d="M27.9531 24.0391H29.2658C30.0428 24.0391 30.6403 24.5467 30.6403 25.5777C30.6403 26.4801 30.1883 27.1444 29.2658 27.1444H27.9531V24.0391ZM28.6156 26.5772H29.2162C29.6032 26.5772 29.9778 26.3328 29.9778 25.6372C29.9778 25.0105 29.7673 24.6062 29.1017 24.6062H28.6342V26.5709L28.6156 26.5772Z" fill="white"></path><path d="M33.6693 25.9736C33.6693 26.826 33.1833 27.227 32.3753 27.227C31.5673 27.227 31.0781 26.8197 31.0781 25.9736V24.0215H31.7437V25.9736C31.7437 26.3183 31.8242 26.6441 32.3629 26.6441C32.8304 26.6441 32.982 26.4311 32.982 25.9736V24.0215H33.6477V25.9736H33.6693Z" fill="white"></path><path d="M29.9917 11.9286C29.9917 13.8275 28.4871 14.6485 26.9299 14.6485C26.0897 14.684 25.2624 14.43 24.5833 13.9278L24.4688 13.8432L25.1839 12.5178L25.2953 12.5836L25.3449 12.6148C25.8236 13.0017 26.4164 13.2158 27.029 13.2228C27.8215 13.204 28.4686 12.878 28.4686 12.0915C28.4686 11.4178 27.967 11.1514 27.3355 10.8788L26.6234 10.5843C25.6049 10.1393 24.7288 9.46888 24.7288 8.12461V8.10885C24.7288 6.64865 25.9424 5.56763 27.5801 5.56763C28.3764 5.535 29.163 5.75403 29.8307 6.19433L29.9422 6.27573L29.1806 7.60441L29.0846 7.53861L29.0351 7.48843C28.6284 7.12742 28.1022 6.93505 27.5615 6.94955C26.5584 6.96522 26.2674 7.50717 26.2519 7.98033V8.01491C26.2519 8.57267 26.738 8.84839 27.286 9.08027L28.0011 9.39362C29.0691 9.86364 30.0072 10.5342 29.9917 11.9286Z" fill="white"></path><path d="M39.0201 5.70508V10.1138C39.0201 12.605 37.5155 14.6356 35.0389 14.6544C32.5622 14.6732 31.0545 12.605 31.0391 10.1138V5.70508H32.5436V10.1138C32.5622 11.8341 33.3702 13.1785 35.0389 13.1785C36.7075 13.1785 37.5155 11.8498 37.5155 10.1138V5.70508H39.0201Z" fill="white"></path><path d="M64.0939 5.68359C62.0042 12.8906 60.1591 14.4823 60.1591 14.4823H59.088C59.088 14.4823 57.2305 12.8781 55.1562 5.68359H56.8559C56.8559 5.68359 58.0044 10.1738 59.6421 12.7621C61.2612 10.1738 62.4283 5.68359 62.4283 5.68359H64.0939Z" fill="white"></path><path d="M66.7468 7.12448V9.23959H70.2946V10.6497H66.7468V13.0751H71.2326V14.4789H65.2422V5.70508H71.2326V7.13076L66.7468 7.12448Z" fill="white"></path><path d="M78.5348 14.3692C77.4743 11.9354 75.9751 9.7231 74.1139 7.84528V14.4789H72.6094V5.70508H73.9994C73.9994 5.70508 76.4947 7.47545 78.8258 11.5239V5.70508H80.3304V14.507H78.6803C78.575 14.5007 78.575 14.4506 78.5348 14.3692Z" fill="white"></path><path d="M83.2157 5.70508V14.507H81.7266V5.70508H83.2157Z" fill="white"></path><path d="M90.14 12.0759C90.5127 12.4573 90.9606 12.7549 91.4545 12.9493C91.9485 13.1437 92.4774 13.2305 93.0067 13.204H93.1182V14.6297H92.9727C91.5641 14.6297 90.301 14.4668 88.9729 13.063L87.2578 11.2612H86.1092V14.5075H84.6016V5.70553H87.7903C88.1538 5.69887 88.515 5.76561 88.8528 5.90183C89.1905 6.03805 89.4981 6.24096 89.7575 6.49885C90.0169 6.75674 90.2229 7.06448 90.3636 7.40386C90.5042 7.74324 90.5766 8.10747 90.5765 8.47549C90.5787 8.99102 90.4372 9.49682 90.1684 9.93468C89.8995 10.3725 89.5141 10.7248 89.0564 10.9511L90.14 12.0759ZM86.0907 9.82926H87.6633C87.8442 9.83807 88.0249 9.80954 88.1946 9.74556C88.3642 9.68159 88.5192 9.58342 88.6503 9.457C88.7814 9.33058 88.8857 9.17852 88.957 9.01008C89.0283 8.84164 89.0651 8.66042 89.0651 8.47717C89.0651 8.29392 89.0283 8.11256 88.957 7.94411C88.8857 7.77567 88.7814 7.62361 88.6503 7.49719C88.5192 7.37077 88.3642 7.2726 88.1946 7.20863C88.0249 7.14466 87.8442 7.11612 87.6633 7.12494H86.0907V9.82926Z" fill="white"></path><path d="M56.6593 14.386C55.8173 11.4687 54.4923 7.45454 52.7896 5.71545L52.7555 5.68424H51.6719L51.641 5.71545C50.1674 7.22266 48.9693 10.4377 48.1272 13.1733C47.3013 13.0838 46.5334 12.7006 45.9602 12.0921L44.8766 10.961C45.3412 10.7352 45.7317 10.3788 46.0013 9.93419C46.2709 9.4896 46.4082 8.97572 46.3967 8.4542C46.3971 8.084 46.3246 7.71747 46.1834 7.37599C46.0421 7.03451 45.835 6.72489 45.5741 6.46547C45.3132 6.20604 45.0037 6.00194 44.6639 5.86509C44.324 5.72823 43.9606 5.66139 43.5949 5.66848H40.4062V14.4862H41.9139V11.2399H43.0625L44.7776 13.0605C46.0561 14.4204 47.2883 14.6272 48.6319 14.6272H49.3934C49.6194 13.7906 49.8795 12.8568 50.155 12.0045H54.3003C54.5727 12.8411 54.7678 13.5931 54.9938 14.4297L55.0124 14.5113H56.712L56.6593 14.386ZM43.4804 9.82984H41.8922V7.12552H43.4618C43.6425 7.11621 43.8231 7.14401 43.9929 7.20723C44.1626 7.27044 44.318 7.3679 44.4496 7.49349C44.5812 7.61909 44.6863 7.77031 44.7586 7.93812C44.831 8.10592 44.869 8.28673 44.8704 8.4698C44.875 8.65369 44.8419 8.83661 44.773 9.00684C44.7042 9.17708 44.6012 9.33097 44.4705 9.45881C44.3398 9.58665 44.1843 9.68566 44.0139 9.74952C43.8435 9.81338 43.6618 9.84075 43.4804 9.82984ZM50.6008 10.6821C50.9916 9.51554 51.5362 8.40784 52.2199 7.38884C52.8994 8.41034 53.4437 9.51745 53.839 10.6821H50.6008Z" fill="white"></path><path d="M37.9686 24.2832C37.7139 24.1915 37.4463 24.1417 37.176 24.1359C37.0175 24.1231 36.8582 24.1454 36.709 24.2011C36.5598 24.2567 36.4243 24.3445 36.3119 24.4583C36.1994 24.5721 36.1128 24.7092 36.0578 24.8602C36.0028 25.0112 35.9808 25.1725 35.9934 25.333C35.9884 25.4945 36.0167 25.6553 36.0766 25.8051C36.1364 25.955 36.2264 26.0905 36.3409 26.2031C36.4554 26.3157 36.5918 26.4029 36.7415 26.4592C36.8911 26.5155 37.0507 26.5396 37.2101 26.5299C37.4674 26.5181 37.7221 26.474 37.9686 26.3983L38.1636 27.025C38.062 27.0625 37.9587 27.0949 37.854 27.1222C37.6307 27.1748 37.4023 27.202 37.173 27.2036C35.9346 27.2036 35.1328 26.4672 35.1328 25.3235C35.1328 24.1798 35.9099 23.4434 37.0925 23.4434C37.4525 23.4417 37.8095 23.5088 38.145 23.6409L37.9686 24.2832Z" fill="white"></path><path d="M38.5374 24.4162H39.2836V24.8204C39.3504 24.68 39.4571 24.5629 39.59 24.4842C39.7229 24.4055 39.876 24.3687 40.0296 24.3785C40.145 24.3804 40.2592 24.4027 40.3671 24.4443L40.1844 25.1337C40.1098 25.1212 40.0341 25.1161 39.9584 25.1181C39.866 25.106 39.772 25.1193 39.6864 25.1568C39.6008 25.1943 39.5269 25.2545 39.4724 25.3311C39.3733 25.4627 39.3578 25.5756 39.3578 25.9359V27.1486H38.5312V24.4131L38.5374 24.4162Z" fill="white"></path><path d="M41.1812 26.0731C41.2122 26.4177 41.4908 26.6151 41.9273 26.6151C42.1728 26.605 42.4143 26.5488 42.6394 26.4491L42.8499 26.9599C42.7863 26.9903 42.7212 27.0175 42.6548 27.0412C42.402 27.1397 42.1332 27.1897 41.8623 27.1886C40.9552 27.1886 40.3546 26.6152 40.3546 25.7785C40.3421 25.5936 40.3678 25.408 40.4301 25.2337C40.4923 25.0594 40.5897 24.9001 40.7161 24.7659C40.8425 24.6318 40.9951 24.5259 41.1642 24.4547C41.3333 24.3836 41.5152 24.3488 41.6982 24.3527C42.5248 24.3527 42.9954 24.9261 42.9954 25.9194V26.0668H41.1812V26.0731ZM41.1657 25.4996H42.2648C42.2664 25.4275 42.2539 25.3558 42.228 25.2886C42.202 25.2214 42.1631 25.1601 42.1136 25.1082C42.0641 25.0563 42.0049 25.0148 41.9394 24.9863C41.874 24.9577 41.8036 24.9427 41.7323 24.9419C41.5852 24.9418 41.4438 24.9997 41.3381 25.1032C41.2324 25.2067 41.1706 25.3477 41.1657 25.4965V25.4996ZM41.8128 23.0586L42.4753 23.4033L41.8283 24.193L41.3267 23.9454L41.8128 23.0586Z" fill="white"></path><path d="M45.3112 23.1875H46.1348V27.1357H45.3917V26.7597C45.29 26.8975 45.1578 27.0094 45.0056 27.0862C44.8534 27.1629 44.6856 27.2024 44.5156 27.2015C43.819 27.2015 43.3516 26.6438 43.3516 25.7915C43.3516 24.9391 43.819 24.35 44.5156 24.35C44.6702 24.3461 44.8236 24.3779 44.9641 24.443C45.1047 24.5082 45.2287 24.6051 45.3267 24.7261V23.1875H45.3112ZM44.1782 25.7915C44.1782 26.2521 44.4042 26.5465 44.7447 26.5465C45.0852 26.5465 45.3267 26.252 45.3267 25.7757C45.3267 25.2994 45.1007 25.0049 44.7447 25.0049C44.3887 25.0049 44.1782 25.3183 44.1782 25.7915Z" fill="white"></path><path d="M46.6641 23.2695H47.5061V24.0561H46.6641V23.2695ZM46.6641 24.4164H47.4906V27.1364H46.6641V24.4164Z" fill="white"></path><path d="M47.8468 24.4159H48.2493V23.7422H49.0759V24.4159H49.695V25.0426H49.0759V26.296C49.0759 26.4777 49.2214 26.5749 49.4505 26.5749C49.543 26.572 49.6347 26.5563 49.7229 26.5279L49.822 27.0668C49.6232 27.1393 49.4141 27.1785 49.2028 27.1828C49.075 27.1957 48.9459 27.182 48.8235 27.1427C48.7011 27.1033 48.5879 27.0392 48.4908 26.954C48.2957 26.7879 48.2462 26.6093 48.2462 26.1832V25.0363H47.8438V24.4096L47.8468 24.4159Z" fill="white"></path><path d="M51.103 23.5293H52.3661L53.1432 25.7416C53.2063 26.0106 53.2385 26.2861 53.2392 26.5626C53.25 26.2866 53.2831 26.012 53.3382 25.7416L54.0998 23.5293H55.3536V27.1516H54.5425L54.558 24.742C54.558 24.695 54.592 24.4004 54.623 24.1372C54.592 24.3001 54.5735 24.366 54.5425 24.4819C54.5115 24.5978 54.493 24.6292 54.462 24.742L53.6354 27.1705H52.8429L52.0008 24.742C51.9678 24.6574 51.9409 24.5704 51.9203 24.4819C51.8863 24.366 51.8708 24.3001 51.8213 24.1372L51.8399 24.2845L51.8553 24.4819C51.8553 24.6448 51.8863 24.7107 51.8863 24.742L51.9049 27.1516H51.0938L51.103 23.5293Z" fill="white"></path><path d="M58.4219 26.0204C58.4219 26.7599 57.9358 27.2173 57.1092 27.2173C56.2826 27.2173 55.7656 26.7756 55.7656 26.0204V24.416H56.5922V25.8919C56.5794 26.031 56.6018 26.1713 56.6572 26.2993C56.7055 26.3725 56.7703 26.433 56.8461 26.476C56.922 26.5191 57.0068 26.5433 57.0937 26.5467C57.4343 26.5467 57.5953 26.318 57.5953 25.92V24.4599H58.4219V26.0267V26.0204Z" fill="white"></path><path d="M58.7811 24.4159H59.1867V23.7422H60.0009V24.4159H60.62V25.0426H60.0009V26.296C60.0009 26.4777 60.1463 26.5749 60.3723 26.5749C60.4659 26.5718 60.5585 26.556 60.6479 26.5279L60.7439 27.0668C60.5451 27.1393 60.3359 27.1785 60.1247 27.1828C59.9969 27.1951 59.868 27.1812 59.7456 27.1419C59.6233 27.1026 59.51 27.0387 59.4126 26.954C59.2207 26.7879 59.1712 26.6093 59.1712 26.1832V25.0363H58.7656V24.4096L58.7811 24.4159Z" fill="white"></path><path d="M63.7109 26.0204C63.7109 26.7599 63.2094 27.2173 62.3983 27.2173C61.5872 27.2173 61.0547 26.7756 61.0547 26.0204V24.416H61.8813V25.8919C61.8684 26.031 61.8908 26.1713 61.9463 26.2993C61.9946 26.3725 62.0593 26.433 62.1352 26.476C62.211 26.5191 62.2959 26.5433 62.3828 26.5467C62.7233 26.5467 62.9029 26.318 62.9029 25.92V24.4599H63.7109V26.0267V26.0204Z" fill="white"></path><path d="M64.8375 26.0742C64.8716 26.4189 65.1471 26.6163 65.5836 26.6163C65.8291 26.6062 66.0705 26.55 66.2956 26.4503L66.5062 26.961C66.444 26.9948 66.3787 27.022 66.3111 27.0424C66.0584 27.1413 65.7895 27.1913 65.5186 27.1898C64.6115 27.1898 64.0109 26.6164 64.0109 25.7797C63.9984 25.5945 64.0241 25.4086 64.0866 25.2341C64.149 25.0596 64.2467 24.9002 64.3734 24.7661C64.5001 24.6319 64.6531 24.526 64.8226 24.455C64.992 24.3841 65.1743 24.3495 65.3576 24.3539C66.1811 24.3539 66.6516 24.9273 66.6516 25.9206V26.068H64.8375V26.0742ZM64.8375 25.5008H65.9396C65.9413 25.3551 65.8859 25.2145 65.7855 25.11C65.6852 25.0055 65.548 24.9456 65.404 24.9431C65.3306 24.941 65.2576 24.9537 65.1891 24.9806C65.1207 25.0075 65.0582 25.0479 65.0054 25.0996C64.9527 25.1513 64.9106 25.2132 64.8818 25.2815C64.8529 25.3499 64.8379 25.4234 64.8375 25.4977V25.5008Z" fill="white"></path><path d="M67.0859 23.1875H67.9125V27.1357H67.0859V23.1875Z" fill="white"></path><path d="M76.7191 25.1673C77.0228 25.0085 77.265 24.7512 77.4069 24.4366C77.5489 24.1219 77.5824 23.7682 77.5021 23.4319C77.4218 23.0957 77.2324 22.7965 76.9641 22.5822C76.6959 22.3679 76.3643 22.2509 76.0226 22.25H74.2734V27.1352H75.1V25.3335H75.7192L76.6479 26.3486C76.9219 26.6535 77.2615 26.8904 77.6406 27.041C78.0196 27.1915 78.4279 27.2516 78.8336 27.2166H78.9141V26.4302H78.8491C78.5621 26.4409 78.2761 26.3906 78.0095 26.2827C77.7429 26.1747 77.5016 26.0116 77.3012 25.8035L76.7191 25.1673ZM75.1 23.0396H75.9576C76.0582 23.033 76.159 23.0475 76.2539 23.0819C76.3487 23.1163 76.4356 23.17 76.5091 23.2398C76.5827 23.3095 76.6413 23.3937 76.6814 23.4873C76.7214 23.5809 76.7421 23.6818 76.7421 23.7839C76.7421 23.8859 76.7214 23.9868 76.6814 24.0804C76.6413 24.174 76.5827 24.2583 76.5091 24.3281C76.4356 24.3978 76.3487 24.4516 76.2539 24.486C76.159 24.5204 76.0582 24.5347 75.9576 24.5281H75.1V23.0396Z" fill="white"></path><path d="M73.8559 27.0537C73.4039 25.4462 72.6764 23.2182 71.7507 22.25V22.2344H71.147V22.25C70.2183 23.2182 69.4939 25.4462 69.0419 27.0537L69.0078 27.1352H69.9366L69.9552 27.085C70.0821 26.6275 70.1811 26.2014 70.3266 25.7407H72.5773C72.7228 26.2014 72.8373 26.6275 72.9488 27.085V27.1352H73.8775L73.8559 27.0537ZM72.308 25.0043H70.5619C70.7692 24.3609 71.063 23.7494 71.435 23.187C71.7932 23.7587 72.089 24.368 72.3173 25.0043H72.308Z" fill="white"></path><path d="M79.3438 27.1352H80.1703V22.2344H79.3438V27.1352ZM81.3189 24.5938L83.9101 22.2344H82.8111L80.1858 24.6126L81.7894 26.333C82.0634 26.6379 82.4031 26.8748 82.7821 27.0253C83.1612 27.1759 83.5694 27.236 83.9751 27.201H84.0556V26.4144H83.9906C83.7003 26.4263 83.4107 26.3768 83.1404 26.2689C82.8701 26.161 82.6251 25.997 82.421 25.7877L81.3189 24.5938Z" fill="white"></path><path d="M93.0734 27.0537C92.6214 25.4462 91.8939 23.2183 90.9714 22.2688L90.9528 22.25H90.3708V22.2688C89.442 23.2339 88.7176 25.4462 88.2656 27.0537V27.1352H89.1944V27.085C89.3244 26.6275 89.4203 26.2014 89.5659 25.7408H91.8165C91.962 26.2014 92.0766 26.6275 92.1911 27.085V27.1352H93.1198L93.0734 27.0537ZM91.5255 25.0201H89.7794C89.988 24.3772 90.2817 23.7657 90.6525 23.2026C91.0247 23.764 91.3165 24.376 91.5193 25.0201H91.5255Z" fill="white"></path><path d="M87.8395 23.0209V22.2344H84.5703V27.1195H87.8395V26.3298H85.3969V24.9887H87.3225V24.1991H85.3969V23.0209H87.8395Z" fill="white"></path><path d="M10.7567 10.5645C9.36359 12.5981 6.17179 16.023 1.1875 16.7782V17.6462C1.1871 17.8958 1.23531 18.1431 1.32941 18.3739C1.42351 18.6046 1.56164 18.8143 1.73589 18.9909C1.91014 19.1676 2.11709 19.3078 2.34491 19.4034C2.57272 19.499 2.81695 19.5483 3.06358 19.5483H18.2672C18.7656 19.5483 19.2436 19.3479 19.596 18.9912C19.9484 18.6345 20.1464 18.1506 20.1464 17.6462V15.647C17.2146 11.3698 12.8433 10.6303 10.7567 10.5645Z" fill="white"></path></svg>